<svg xmlns="http://www.w3.org/2000/svg" width="74.856" height="22.209" viewBox="0 0 74.856 22.209">
  <g id="Download_on_the_App_Store_Badge_US-UK_RGB_wht_092917" transform="translate(0.105 0.104)">
    <g id="Group_16443" data-name="Group 16443" transform="translate(0 0)">
      <g id="Group_16441" data-name="Group 16441">
        <path id="Path_21284" data-name="Path 21284" d="M68.7,0H5.265c-.191,0-.38,0-.573.007a9.322,9.322,0,0,0-1.25.1A4.557,4.557,0,0,0,2.256.45a4.035,4.035,0,0,0-1.01.648,3.5,3.5,0,0,0-.735.892,3.34,3.34,0,0,0-.39,1.047,6.325,6.325,0,0,0-.112,1.1C0,4.306,0,4.476,0,4.644V17.357c0,.171,0,.336.009.507a6.325,6.325,0,0,0,.112,1.1,3.333,3.333,0,0,0,.39,1.047,3.472,3.472,0,0,0,.735.888,3.933,3.933,0,0,0,1.01.648,4.58,4.58,0,0,0,1.186.347,9.492,9.492,0,0,0,1.25.1c.193,0,.382.006.573.006H69.377c.19,0,.385,0,.575-.006a9.368,9.368,0,0,0,1.248-.1,4.652,4.652,0,0,0,1.19-.347A3.934,3.934,0,0,0,73.4,20.9a3.578,3.578,0,0,0,.737-.888,3.339,3.339,0,0,0,.386-1.047,6.577,6.577,0,0,0,.116-1.1c0-.171,0-.336,0-.507,0-.2,0-.4,0-.6V5.245c0-.2,0-.4,0-.6,0-.169,0-.338,0-.506a6.576,6.576,0,0,0-.116-1.1,3.346,3.346,0,0,0-.386-1.047A3.829,3.829,0,0,0,72.39.45,4.628,4.628,0,0,0,71.2.105a9.2,9.2,0,0,0-1.248-.1c-.19,0-.385-.006-.575-.007H68.7Z" transform="translate(0 0)"/>
        <path id="Path_21285" data-name="Path 21285" d="M5.6,21.783c-.19,0-.376,0-.564-.006a9,9,0,0,1-1.166-.089,4.041,4.041,0,0,1-1.033-.3,3.391,3.391,0,0,1-.871-.556,2.962,2.962,0,0,1-.637-.763,2.866,2.866,0,0,1-.339-.906,5.97,5.97,0,0,1-.1-1.025c0-.115-.009-.5-.009-.5V5.013s.006-.378.009-.489A5.949,5.949,0,0,1,.985,3.5a2.882,2.882,0,0,1,.339-.909,2.988,2.988,0,0,1,.633-.764,3.491,3.491,0,0,1,.875-.559,4,4,0,0,1,1.031-.3,8.933,8.933,0,0,1,1.17-.09L5.6.875H69.7l.57.007a8.79,8.79,0,0,1,1.159.089,4.08,4.08,0,0,1,1.042.3A3.305,3.305,0,0,1,73.98,2.593a2.884,2.884,0,0,1,.334.9,6.252,6.252,0,0,1,.108,1.032c0,.155,0,.321,0,.487,0,.2,0,.4,0,.6V17.05c0,.2,0,.392,0,.588,0,.178,0,.341,0,.508a6.124,6.124,0,0,1-.107,1.013,2.872,2.872,0,0,1-.337.913,3.053,3.053,0,0,1-.634.757,3.393,3.393,0,0,1-.873.559,4.027,4.027,0,0,1-1.04.3,8.9,8.9,0,0,1-1.166.089c-.183,0-.374.006-.56.006H5.6Z" transform="translate(-0.328 -0.329)" fill="#fff" stroke="#1d1d1b" stroke-width="1.3"/>
      </g>
      <g id="_Group_" data-name="&lt;Group&gt;" transform="translate(5.994 3.04)">
        <g id="_Group_2" data-name="&lt;Group&gt;">
          <g id="_Group_3" data-name="&lt;Group&gt;">
            <path id="_Path_" data-name="&lt;Path&gt;" d="M19.208,17.414a3.21,3.21,0,0,1,1.529-2.693,3.286,3.286,0,0,0-2.589-1.4c-1.089-.114-2.145.652-2.7.652s-1.42-.64-2.341-.622a3.448,3.448,0,0,0-2.9,1.77c-1.255,2.172-.319,5.364.883,7.12.6.86,1.3,1.82,2.223,1.786.9-.037,1.236-.574,2.322-.574s1.391.574,2.329.552c.965-.016,1.574-.864,2.154-1.731a7.111,7.111,0,0,0,.985-2.006,3.1,3.1,0,0,1-1.894-2.854Z" transform="translate(-9.609 -9.902)"/>
            <path id="_Path_2" data-name="&lt;Path&gt;" d="M20.886,10.111a3.161,3.161,0,0,0,.723-2.264,3.216,3.216,0,0,0-2.081,1.077,3.007,3.007,0,0,0-.742,2.18A2.659,2.659,0,0,0,20.886,10.111Z" transform="translate(-13.059 -7.847)"/>
          </g>
        </g>
        <g id="Group_16442" data-name="Group 16442" transform="translate(15.481 6.253)">
          <path id="Path_21286" data-name="Path 21286" d="M39.339,23.731H36.386l-.709,2.094H34.427l2.8-7.746h1.3l2.8,7.746H40.048Zm-2.647-.966h2.34l-1.154-3.4h-.032Z" transform="translate(-34.427 -17.949)"/>
          <path id="Path_21287" data-name="Path 21287" d="M51.951,24.23c0,1.755-.939,2.883-2.357,2.883a1.915,1.915,0,0,1-1.777-.988H47.79v2.8H46.631V21.406h1.122v.939h.021a2,2,0,0,1,1.8-1C51.006,21.347,51.951,22.48,51.951,24.23Zm-1.192,0c0-1.143-.591-1.9-1.492-1.9-.886,0-1.482.768-1.482,1.9s.6,1.9,1.482,1.9c.9,0,1.492-.746,1.492-1.9Z" transform="translate(-39.018 -19.178)"/>
          <path id="Path_21288" data-name="Path 21288" d="M61.916,24.23c0,1.755-.94,2.883-2.357,2.883a1.915,1.915,0,0,1-1.777-.988h-.027v2.8H56.6V21.406h1.122v.939h.021a2,2,0,0,1,1.8-1C60.971,21.347,61.916,22.48,61.916,24.23Zm-1.192,0c0-1.143-.591-1.9-1.492-1.9-.886,0-1.482.768-1.482,1.9s.6,1.9,1.482,1.9C60.133,26.13,60.724,25.384,60.724,24.23Z" transform="translate(-42.767 -19.178)"/>
          <path id="Path_21289" data-name="Path 21289" d="M70.994,23.588c.086.768.832,1.273,1.852,1.273.977,0,1.68-.5,1.68-1.2,0-.6-.424-.961-1.428-1.208l-1-.242c-1.422-.344-2.083-1.009-2.083-2.088,0-1.337,1.165-2.255,2.818-2.255,1.637,0,2.76.918,2.8,2.255h-1.17c-.07-.773-.709-1.24-1.643-1.24s-1.573.472-1.573,1.159c0,.548.408.87,1.407,1.117l.853.21c1.589.376,2.249,1.014,2.249,2.147,0,1.449-1.154,2.357-2.99,2.357-1.718,0-2.878-.886-2.953-2.287Z" transform="translate(-47.737 -17.871)"/>
          <path id="Path_21290" data-name="Path 21290" d="M82.149,19.3v1.337h1.074v.918H82.149v3.113c0,.484.215.709.687.709a3.624,3.624,0,0,0,.381-.027v.913a3.183,3.183,0,0,1-.644.054c-1.143,0-1.589-.429-1.589-1.525V21.554h-.821v-.918h.821V19.3Z" transform="translate(-51.633 -18.409)"/>
          <path id="Path_21291" data-name="Path 21291" d="M86.064,24.225a2.687,2.687,0,1,1,5.358,0,2.687,2.687,0,1,1-5.358,0Zm4.176,0c0-1.219-.559-1.938-1.5-1.938s-1.5.725-1.5,1.938.559,1.938,1.5,1.938,1.5-.714,1.5-1.938Z" transform="translate(-53.853 -19.173)"/>
          <path id="Path_21292" data-name="Path 21292" d="M96.185,21.406h1.106v.961h.027a1.347,1.347,0,0,1,1.358-1.02,1.788,1.788,0,0,1,.4.043v1.084a1.621,1.621,0,0,0-.521-.07,1.168,1.168,0,0,0-1.208,1.3v3.35H96.185Z" transform="translate(-57.661 -19.178)"/>
          <path id="Path_21293" data-name="Path 21293" d="M106.311,25.389a2.267,2.267,0,0,1-2.432,1.729,2.571,2.571,0,0,1-2.663-2.867,2.6,2.6,0,0,1,2.614-2.92,2.486,2.486,0,0,1,2.545,2.786v.4h-3.989v.07a1.471,1.471,0,0,0,1.519,1.6,1.278,1.278,0,0,0,1.3-.794ZM102.392,23.7h2.824a1.358,1.358,0,0,0-1.385-1.433,1.43,1.43,0,0,0-1.438,1.433Z" transform="translate(-59.554 -19.173)"/>
        </g>
      </g>
    </g>
    <g id="_Group_4" data-name="&lt;Group&gt;" transform="translate(22.251 4.523)">
      <g id="Group_16444" data-name="Group 16444">
        <path id="Path_21294" data-name="Path 21294" d="M37.015,8.728a1.647,1.647,0,0,1,1.751,1.849,1.654,1.654,0,0,1-1.751,1.873H35.671V8.728Zm-.766,3.2h.7a1.17,1.17,0,0,0,1.227-1.339,1.173,1.173,0,0,0-1.227-1.331h-.7Z" transform="translate(-35.671 -8.545)"/>
        <path id="Path_21295" data-name="Path 21295" d="M41.677,11.565a1.331,1.331,0,1,1,2.649,0,1.331,1.331,0,1,1-2.649,0Zm2.079,0c0-.609-.274-.965-.754-.965s-.753.356-.753.965.271.967.753.967.754-.356.754-.967Z" transform="translate(-37.928 -9.066)"/>
        <path id="Path_21296" data-name="Path 21296" d="M49.691,13h-.575l-.581-2.069h-.044L47.913,13h-.57l-.774-2.809h.562l.5,2.143h.041l.577-2.143h.532l.577,2.143h.044l.5-2.143h.554Z" transform="translate(-39.771 -9.098)"/>
        <path id="Path_21297" data-name="Path 21297" d="M53.854,10.16h.534v.446h.041a.841.841,0,0,1,.838-.5.914.914,0,0,1,.972,1.045v1.818h-.554V11.29c0-.451-.2-.676-.606-.676a.644.644,0,0,0-.671.712v1.643h-.554Z" transform="translate(-42.511 -9.064)"/>
        <path id="Path_21298" data-name="Path 21298" d="M59.094,8.437h.554v3.905h-.554Z" transform="translate(-44.483 -8.437)"/>
        <path id="Path_21299" data-name="Path 21299" d="M61.214,11.565a1.331,1.331,0,1,1,2.65,0,1.331,1.331,0,1,1-2.65,0Zm2.079,0c0-.609-.274-.965-.754-.965s-.753.356-.753.965.271.967.753.967.754-.356.754-.967Z" transform="translate(-45.278 -9.066)"/>
        <path id="Path_21300" data-name="Path 21300" d="M66.4,12.177c0-.506.376-.8,1.045-.839l.761-.044v-.242c0-.3-.2-.464-.575-.464-.309,0-.524.114-.585.312h-.537c.057-.482.51-.792,1.148-.792.7,0,1.1.351,1.1.944v1.919h-.534v-.395h-.044a.945.945,0,0,1-.844.441.849.849,0,0,1-.936-.841Zm1.806-.24V11.7l-.686.044c-.387.026-.562.157-.562.405s.219.4.521.4a.662.662,0,0,0,.727-.614Z" transform="translate(-47.232 -9.066)"/>
        <path id="Path_21301" data-name="Path 21301" d="M71.348,10.937c0-.888.456-1.45,1.166-1.45a.926.926,0,0,1,.861.493h.041V8.437h.554v3.905H73.44V11.9H73.4a.975.975,0,0,1-.882.49C71.8,12.389,71.348,11.826,71.348,10.937Zm.573,0c0,.6.281.954.751.954s.756-.364.756-.952-.292-.954-.756-.954-.751.361-.751.952Z" transform="translate(-49.093 -8.437)"/>
        <path id="Path_21302" data-name="Path 21302" d="M79.226,11.565a1.331,1.331,0,1,1,2.649,0,1.331,1.331,0,1,1-2.649,0Zm2.079,0c0-.609-.274-.965-.754-.965s-.753.356-.753.965.271.967.753.967S81.305,12.177,81.305,11.565Z" transform="translate(-52.054 -9.066)"/>
        <path id="Path_21303" data-name="Path 21303" d="M84.669,10.16H85.2v.446h.041a.841.841,0,0,1,.838-.5.914.914,0,0,1,.972,1.045v1.818H86.5V11.29c0-.451-.2-.676-.606-.676a.644.644,0,0,0-.671.712v1.643h-.554Z" transform="translate(-54.105 -9.064)"/>
        <path id="Path_21304" data-name="Path 21304" d="M92.912,9.074v.712h.609v.467h-.609V11.7c0,.294.121.423.4.423a1.85,1.85,0,0,0,.211-.013v.462a1.819,1.819,0,0,1-.3.028c-.616,0-.862-.217-.862-.758V10.253h-.446V9.786h.446V9.074Z" transform="translate(-56.829 -8.677)"/>
        <path id="Path_21305" data-name="Path 21305" d="M95.7,8.437h.549V9.985H96.3a.864.864,0,0,1,.856-.5.925.925,0,0,1,.967,1.047v1.814h-.555V10.666c0-.449-.209-.676-.6-.676a.656.656,0,0,0-.707.712v1.64H95.7Z" transform="translate(-58.256 -8.437)"/>
        <path id="Path_21306" data-name="Path 21306" d="M103.237,12.213a1.14,1.14,0,0,1-1.217.813,1.276,1.276,0,0,1-1.3-1.45,1.3,1.3,0,0,1,1.3-1.467c.782,0,1.253.534,1.253,1.416v.193h-1.983v.031a.742.742,0,0,0,.748.8.673.673,0,0,0,.668-.341Zm-1.95-.905h1.419a.678.678,0,0,0-.691-.728.718.718,0,0,0-.727.728Z" transform="translate(-60.139 -9.066)"/>
      </g>
    </g>
  </g>
</svg>
