<svg id="facebook-rect" xmlns="http://www.w3.org/2000/svg" width="18.729" height="18.729" viewBox="0 0 18.729 18.729">
  <g id="Group_16273" data-name="Group 16273">
    <path id="Path_21070" data-name="Path 21070" d="M3.42,0A3.413,3.413,0,0,0,0,3.42V15.31a3.413,3.413,0,0,0,3.42,3.42H9.864V11.407H7.928V8.771H9.864V6.519c0-1.769,1.144-3.394,3.779-3.394a15.985,15.985,0,0,1,1.856.1l-.062,2.462s-.8-.008-1.683-.008c-.95,0-1.1.438-1.1,1.165V8.771h2.861l-.125,2.636H12.652v7.322H15.31a3.413,3.413,0,0,0,3.42-3.42V3.42A3.413,3.413,0,0,0,15.31,0H3.42Z" fill="#00e785"/>
  </g>
</svg>
