<svg xmlns="http://www.w3.org/2000/svg" width="74.264" height="22.163" viewBox="0 0 74.264 22.163">
  <g id="Group_16465" data-name="Group 16465" transform="translate(2561.694 -8106.642)">
    <g id="Group_16464" data-name="Group 16464" transform="translate(-1 -0.696)">
      <path id="Path_21307" data-name="Path 21307" d="M80.551,31.163H12.713A2.688,2.688,0,0,1,10,28.517V12.645A2.688,2.688,0,0,1,12.713,10H80.551a2.688,2.688,0,0,1,2.713,2.645V28.517a2.688,2.688,0,0,1-2.713,2.645" transform="translate(-2570.194 8097.392)" fill="#fff"/>
      <path id="Path_21309" data-name="Path 21309" d="M80.551,10.423a2.254,2.254,0,0,1,2.279,2.222V28.517a2.254,2.254,0,0,1-2.279,2.222H12.713a2.254,2.254,0,0,1-2.279-2.222V12.645a2.254,2.254,0,0,1,2.279-2.222H80.551m0-.423H12.713A2.688,2.688,0,0,0,10,12.645V28.517a2.688,2.688,0,0,0,2.713,2.645H80.551a2.688,2.688,0,0,0,2.713-2.645V12.645A2.688,2.688,0,0,0,80.551,10Z" transform="translate(-2570.194 8097.837)" fill="none" stroke="#050605" stroke-miterlimit="10" stroke-width="1"/>
      <path id="Path_21310" data-name="Path 21310" d="M25.848,29.424,20.07,35.4v0a1.554,1.554,0,0,0,1.507,1.127,1.587,1.587,0,0,0,.792-.21l.018-.011,6.5-3.658Z" transform="translate(-2574.799 8088.245)" fill="#cc3d23"/>
      <path id="Path_21311" data-name="Path 21311" d="M36.452,26.084l-.005,0-2.808-1.587-3.163,2.744,3.175,3.094,2.793-1.571a1.5,1.5,0,0,0,.009-2.677" transform="translate(-2579.557 8090.566)" fill="#ffbe1a"/>
      <path id="Path_21312" data-name="Path 21312" d="M20.025,19.277a1.458,1.458,0,0,0-.053.392V30.233a1.431,1.431,0,0,0,.054.391L26,24.8Z" transform="translate(-2574.754 8093.023)" fill="#0063b0"/>
      <path id="Path_21313" data-name="Path 21313" d="M25.891,23.945l2.99-2.915-6.5-3.672a1.592,1.592,0,0,0-.806-.217,1.556,1.556,0,0,0-1.508,1.128v0Z" transform="translate(-2574.799 8094.029)" fill="#0c9262"/>
      <path id="Path_21314" data-name="Path 21314" d="M54.644,18.652a1.415,1.415,0,0,1-.4,1.06,1.6,1.6,0,0,1-1.2.47,1.66,1.66,0,0,1-1.2-.477,1.663,1.663,0,0,1,0-2.363,1.662,1.662,0,0,1,1.2-.477,1.716,1.716,0,0,1,.669.133,1.348,1.348,0,0,1,.509.354l-.287.279a1.112,1.112,0,0,0-.891-.377,1.256,1.256,0,0,0-.889.352,1.305,1.305,0,0,0,0,1.831,1.322,1.322,0,0,0,1.8,0,.985.985,0,0,0,.272-.643H53.044v-.381h1.578a1.333,1.333,0,0,1,.023.24" transform="translate(-2589.104 8094.159)" fill="#050605"/>
      <path id="Path_21315" data-name="Path 21315" d="M60.426,17.39H58.943V18.4H60.28v.381H58.943v1.006h1.483v.39h-1.9V17h1.9Z" transform="translate(-2592.384 8094.095)" fill="#050605"/>
      <path id="Path_21316" data-name="Path 21316" d="M64.16,20.174h-.418V17.39h-.91V17h2.238v.39h-.91Z" transform="translate(-2594.354 8094.095)" fill="#050605"/>
      <rect id="Rectangle_70" data-name="Rectangle 70" width="0.418" height="3.174" transform="translate(-2527.665 8111.095)" fill="#050605"/>
      <path id="Path_21317" data-name="Path 21317" d="M73.009,20.174h-.418V17.39h-.91V17h2.238v.39h-.91Z" transform="translate(-2598.401 8094.095)" fill="#050605"/>
      <path id="Path_21318" data-name="Path 21318" d="M81.193,19.7a1.72,1.72,0,0,1-2.387,0,1.683,1.683,0,0,1,0-2.354,1.715,1.715,0,0,1,2.385,0,1.678,1.678,0,0,1,0,2.352m-2.079-.266a1.276,1.276,0,0,0,1.769,0,1.327,1.327,0,0,0,0-1.822,1.274,1.274,0,0,0-1.769,0,1.329,1.329,0,0,0,0,1.822" transform="translate(-2601.439 8094.159)" fill="#050605"/>
      <path id="Path_21319" data-name="Path 21319" d="M85.575,20.174V17h.509l1.583,2.469h.018l-.018-.612V17h.419v3.174h-.437l-1.656-2.589h-.018l.018.612v1.977Z" transform="translate(-2604.754 8094.095)" fill="#050605"/>
      <path id="Path_21320" data-name="Path 21320" d="M65.746,29.536a2.251,2.251,0,1,0,2.317,2.25,2.247,2.247,0,0,0-2.317-2.25m0,3.614a1.365,1.365,0,1,1,1.3-1.363,1.317,1.317,0,0,1-1.3,1.363m-5.054-3.614a2.251,2.251,0,1,0,2.317,2.25,2.248,2.248,0,0,0-2.317-2.25m0,3.614a1.365,1.365,0,1,1,1.3-1.363,1.317,1.317,0,0,1-1.3,1.363m-6.013-2.923v.954h2.343a1.969,1.969,0,0,1-.533,1.2,2.43,2.43,0,0,1-1.81.7,2.54,2.54,0,1,1,1.766-4.4l.691-.674a3.462,3.462,0,0,0-2.457-.963,3.5,3.5,0,1,0,0,6.989,3.321,3.321,0,0,0,2.5-.98,3.105,3.105,0,0,0,.848-2.233,3.009,3.009,0,0,0-.053-.6Zm24.589.741a2.136,2.136,0,0,0-1.976-1.432,2.163,2.163,0,0,0-2.177,2.25,2.23,2.23,0,0,0,2.29,2.25,2.309,2.309,0,0,0,1.924-1l-.787-.512a1.325,1.325,0,0,1-1.137.622,1.177,1.177,0,0,1-1.119-.681l3.086-1.245Zm-3.148.75a1.249,1.249,0,0,1,1.206-1.313.9.9,0,0,1,.857.477ZM73.611,33.9h1.014V27.286H73.611ZM71.95,30.039h-.035a1.619,1.619,0,0,0-1.215-.5,2.25,2.25,0,0,0,0,4.5,1.59,1.59,0,0,0,1.215-.512h.035v.324a1.165,1.165,0,0,1-1.233,1.321,1.275,1.275,0,0,1-1.163-.8l-.883.358a2.2,2.2,0,0,0,2.046,1.33,2.081,2.081,0,0,0,2.195-2.344v-4.04H71.95ZM70.787,33.15a1.366,1.366,0,0,1,0-2.727,1.371,1.371,0,0,1,0,2.727m13.231-5.864H81.592V33.9H82.6V31.394h1.414a2.061,2.061,0,1,0,0-4.108m.026,3.188H82.6V28.207h1.44a1.135,1.135,0,1,1,0,2.267m6.258-.95A1.909,1.909,0,0,0,88.5,30.537l.9.366a1.1,1.1,0,0,1,1.99.366v.068a2.285,2.285,0,0,0-1.056-.255c-.969,0-1.955.519-1.955,1.489a1.554,1.554,0,0,0,1.685,1.455,1.438,1.438,0,0,0,1.292-.647h.035v.511h.977V31.353a1.843,1.843,0,0,0-2.06-1.829m-.122,3.625c-.332,0-.795-.161-.795-.562,0-.51.576-.706,1.073-.706a1.842,1.842,0,0,1,.925.221,1.217,1.217,0,0,1-1.2,1.046m5.743-3.48-1.161,2.868h-.035l-1.2-2.868H92.432l1.807,4.008L93.21,35.906h1.056l2.785-6.237ZM86.8,33.9h1.013V27.286H86.8Z" transform="translate(-2588.962 8089.364)" fill="#050605"/>
    </g>
  </g>
</svg>
