<svg xmlns="http://www.w3.org/2000/svg" width="19.99" height="19.99" viewBox="0 0 19.99 19.99">
  <path id="Subtraction_3" data-name="Subtraction 3" d="M15.6,18.99H3.391A3.4,3.4,0,0,1,0,15.6V3.391A3.4,3.4,0,0,1,3.391,0H15.6A3.4,3.4,0,0,1,18.99,3.391V15.6A3.4,3.4,0,0,1,15.6,18.99ZM9.61,3.6c-1.191,0-2.025.013-2.479.039a3.685,3.685,0,0,0-2.518.969A3.685,3.685,0,0,0,3.643,7.13C3.617,7.585,3.6,8.419,3.6,9.61s.013,2.024.039,2.479a3.684,3.684,0,0,0,.969,2.518,3.687,3.687,0,0,0,2.518.97c.457.026,1.291.039,2.479.039s2.022-.013,2.479-.039a3.685,3.685,0,0,0,2.518-.97,3.686,3.686,0,0,0,.97-2.518c.026-.457.039-1.291.039-2.479S15.6,7.587,15.576,7.13a3.687,3.687,0,0,0-.97-2.518,3.684,3.684,0,0,0-2.518-.969C11.634,3.617,10.8,3.6,9.61,3.6Zm1.076,10.939-.478,0-.6,0-.6,0-.478,0-.347,0c-.185,0-.432-.01-.755-.023a6.178,6.178,0,0,1-.805-.078,3.134,3.134,0,0,1-.559-.145,2.046,2.046,0,0,1-1.142-1.142,3.133,3.133,0,0,1-.145-.559,6.246,6.246,0,0,1-.078-.805c-.013-.323-.021-.57-.023-.755s0-.464,0-.825v-.164c0-.26,0-.4,0-.434s0-.172,0-.428v-.17c0-.361,0-.638,0-.825s.01-.432.023-.755a6.236,6.236,0,0,1,.078-.805,3.136,3.136,0,0,1,.145-.559A2.044,2.044,0,0,1,6.067,4.925a3.137,3.137,0,0,1,.559-.145A6.236,6.236,0,0,1,7.432,4.7c.323-.013.57-.021.755-.023l.347,0,.478,0h.17l.428,0,.434,0h.164l.478,0,.347,0c.185,0,.432.01.755.023a6.246,6.246,0,0,1,.805.078,3.133,3.133,0,0,1,.559.145,2.046,2.046,0,0,1,1.142,1.142,3.134,3.134,0,0,1,.145.559,6.178,6.178,0,0,1,.078.805c.013.323.021.57.023.755s0,.464,0,.825c0,.34,0,.558,0,.6s0,.258,0,.6c0,.36,0,.638,0,.825s-.01.432-.023.755a6.189,6.189,0,0,1-.078.805,3.13,3.13,0,0,1-.145.559,2.048,2.048,0,0,1-1.142,1.142,3.131,3.131,0,0,1-.559.145,6.188,6.188,0,0,1-.805.078c-.323.013-.57.021-.755.023ZM9.61,6.528A3.071,3.071,0,0,0,6.528,9.61,3.071,3.071,0,0,0,9.61,12.691,3.071,3.071,0,0,0,12.691,9.61,3.071,3.071,0,0,0,9.61,6.528Zm3.206-.844a.721.721,0,1,0,.508.211A.695.695,0,0,0,12.816,5.684ZM9.61,11.611A2,2,0,0,1,8.194,8.194a2,2,0,0,1,2.831,2.831A1.937,1.937,0,0,1,9.61,11.611Z" transform="translate(0.5 0.5)" fill="#00e785" stroke="rgba(0,0,0,0)" stroke-miterlimit="10" stroke-width="1"/>
</svg>
