<svg xmlns="http://www.w3.org/2000/svg" xmlns:xlink="http://www.w3.org/1999/xlink" width="18.721" height="18.721" viewBox="0 0 18.721 18.721">
  <defs>
    <clipPath id="clip-path">
      <rect width="18.721" height="18.721" fill="none"/>
    </clipPath>
  </defs>
  <g id="linkedin-rect" clip-path="url(#clip-path)">
    <g id="linkedin-rect-2" data-name="linkedin-rect">
      <path id="Path_21073" data-name="Path 21073" d="M3.678.012A3.68,3.68,0,0,0,.009,3.681V15.065a3.679,3.679,0,0,0,3.669,3.668H15.062a3.679,3.679,0,0,0,3.668-3.668V3.681A3.679,3.679,0,0,0,15.062.012ZM4.6,3.1A1.474,1.474,0,1,1,4.582,6.04H4.564A1.474,1.474,0,1,1,4.6,3.1ZM12.936,7c1.86,0,3.255,1.216,3.255,3.829V15.71H13.364V11.159c0-1.144-.409-1.924-1.432-1.924a1.548,1.548,0,0,0-1.451,1.034,1.937,1.937,0,0,0-.093.69V15.71H7.56S7.6,8,7.56,7.2h2.828v1.2A2.807,2.807,0,0,1,12.936,7Zm-9.768.2H6V15.71H3.168V7.2Z" transform="translate(-0.009 -0.012)" fill="#00e785"/>
    </g>
  </g>
</svg>
