<svg xmlns="http://www.w3.org/2000/svg" xmlns:xlink="http://www.w3.org/1999/xlink" width="18.73" height="18.729" viewBox="0 0 18.73 18.729">
  <defs>
    <clipPath id="clip-path">
      <rect id="Rectangle_4806" data-name="Rectangle 4806" width="13.579" height="12.324" fill="none"/>
    </clipPath>
  </defs>
  <g id="Group_18407" data-name="Group 18407" transform="translate(-1823.473 -6719.461)">
    <g id="Group_18404" data-name="Group 18404">
      <path id="Path_29794" data-name="Path 29794" d="M188.577,75.637H176.537a3.345,3.345,0,0,1-3.345-3.345V60.252a3.345,3.345,0,0,1,3.345-3.345h12.041a3.345,3.345,0,0,1,3.345,3.345V72.292a3.345,3.345,0,0,1-3.345,3.345" transform="translate(1650.281 6662.554)" fill="#00e785"/>
    </g>
    <g id="Group_18406" data-name="Group 18406" transform="translate(1826.048 6722.664)">
      <g id="Group_18405" data-name="Group 18405" clip-path="url(#clip-path)">
        <path id="Path_29795" data-name="Path 29795" d="M12.769.023c-.078.091-.156.182-.234.273L8.37,5.062c-.136.156-.136.157-.024.309.611.831,1.241,1.647,1.861,2.471q1.031,1.367,2.066,2.731.641.846,1.284,1.69c.009.012.027.022.021.039s-.032.014-.048.015h-.521q-1.753,0-3.505,0a.175.175,0,0,1-.156-.079Q8.324,10.9,7.3,9.556c-.382-.5-.767-1-1.147-1.5-.04-.052-.058-.041-.093,0q-.516.6-1.035,1.192c-.829.946-1.664,1.887-2.484,2.84a.593.593,0,0,1-.522.233c-.557-.017-1.116,0-1.673-.005-.022,0-.052.016-.065-.01s.019-.039.033-.056q1.325-1.52,2.652-3.039c.7-.8,1.391-1.608,2.107-2.394.053-.058.065-.091.009-.164Q3.195,4.2,1.319,1.743C.892,1.185.461.631.032.074.018.057-.008.04,0,.015S.04,0,.059,0H4.188A.156.156,0,0,1,4.33.068Q5.359,1.432,6.39,2.794c.276.365.546.734.833,1.091.034.043.049.044.085,0,.242-.277.488-.552.731-.829.393-.449.784-.9,1.177-1.35Q9.942.88,10.668.053A.155.155,0,0,1,10.8,0h1.887c.025,0,.053-.009.081.017M3.043,1.179H2.475c-.017,0-.04-.01-.049.013s.014.032.025.046c.183.241.367.48.55.721q1.131,1.49,2.27,2.972L6.795,6.924l3.124,4.088a.134.134,0,0,0,.119.059c.3,0,.605,0,.908-.005.053,0,.131.031.153-.012s-.043-.094-.076-.137q-.706-.94-1.415-1.878Q8.488,7.557,7.366,6.076l-1.818-2.4Q4.623,2.447,3.7,1.222A.1.1,0,0,0,3.6,1.179h-.56" transform="translate(0 0)"/>
      </g>
    </g>
  </g>
</svg>
