<svg id="Group_16315" data-name="Group 16315" xmlns="http://www.w3.org/2000/svg" xmlns:xlink="http://www.w3.org/1999/xlink" width="50.035" height="40.189" viewBox="0 0 50.035 40.189">
  <defs>
    <clipPath id="clip-path">
      <rect id="Rectangle_25" data-name="Rectangle 25" width="50.035" height="40.189" fill="#00e785"/>
    </clipPath>
  </defs>
  <g id="Group_16314" data-name="Group 16314" clip-path="url(#clip-path)">
    <path id="Path_21145" data-name="Path 21145" d="M0,14.1a15.135,15.135,0,0,1,.7-2.16,6.741,6.741,0,0,1,6.283-4.07c6.334-.066,12.67-.055,19-.007a7.028,7.028,0,0,1,6.947,6.961c.031,1.481.008,2.964.009,4.446,0,.175,0,.351,0,.584h.62c3.094,0,6.188-.015,9.282,0a7.05,7.05,0,0,1,7.021,5.635,7.646,7.646,0,0,1,.158,1.6q.023,4.03.005,8.061a7.1,7.1,0,0,1-5.965,7.15c-.3.056-.611.072-1,.116.088.84.153,1.661.264,2.475A1.906,1.906,0,0,1,40.58,47.05a8.329,8.329,0,0,1-4.614-4.2.7.7,0,0,0-.741-.454c-2.458,0-4.921.061-7.374-.057a6.956,6.956,0,0,1-6.459-6.5c-.079-1.592-.039-3.19-.052-4.786,0-.193,0-.386,0-.614-.178-.012-.32-.029-.461-.029-2.052,0-4.1.007-6.156-.01a.589.589,0,0,0-.627.393A8.412,8.412,0,0,1,9.38,35.083a1.9,1.9,0,0,1-2.691-2.122c.1-.758.163-1.521.24-2.282.008-.078-.006-.158,0-.112a21.292,21.292,0,0,1-2.957-.941A6.8,6.8,0,0,1,.089,24.34,1.91,1.91,0,0,0,0,24.065V14.1M21.34,28.451c0-.452,0-.825,0-1.2a7.571,7.571,0,0,1,.771-3.492c.03-.058.055-.118.087-.175a.986.986,0,0,1,1.322-.475.93.93,0,0,1,.423,1.29,7.7,7.7,0,0,0-.656,3.657c.02,2.3,0,4.592.011,6.889a6.9,6.9,0,0,0,.113,1.359,5.181,5.181,0,0,0,5.254,4.144q3.737.016,7.475,0a1.247,1.247,0,0,1,1.274.84,10.5,10.5,0,0,0,1.094,1.943,5.924,5.924,0,0,0,2.834,2.015c-.071-1.209-.163-2.375-.2-3.542-.029-.9.329-1.237,1.226-1.248.146,0,.293,0,.44,0a5.192,5.192,0,0,0,5.266-5.358q.007-3.957,0-7.915a5.166,5.166,0,0,0-5.387-5.369q-6.278-.006-12.556,0c-.147,0-.294.007-.44,0a1.02,1.02,0,0,1-1.055-.995.994.994,0,0,1,1.083-.954c.4-.01.807,0,1.266,0,0-.905.005-1.763,0-2.621a23.346,23.346,0,0,0-.059-2.976A5.113,5.113,0,0,0,25.758,9.8c-3.4-.012-6.807,0-10.211,0-2.834,0-5.667-.021-8.5.008a5.125,5.125,0,0,0-5.075,4.932c-.05,2.93-.06,5.864.008,8.793a4.906,4.906,0,0,0,2.586,4.218,5.634,5.634,0,0,0,3.1.705c.892-.012,1.24.342,1.23,1.243-.007.634-.044,1.268-.088,1.9-.037.539-.1,1.076-.164,1.673a6.6,6.6,0,0,0,3.962-3.9c.3-.787.514-.916,1.348-.917H21.34" transform="translate(0 -7.056)" fill="#00e785"/>
    <path id="Path_21146" data-name="Path 21146" d="M105.49,55.249c-.511-.85-1-1.635-1.458-2.439a.992.992,0,0,1,.32-1.473c.506-.276,1.026-.077,1.38.525s.723,1.222,1.111,1.876a9.524,9.524,0,0,0,1.778-3.6c-.217-.01-.389-.024-.56-.024q-2.588,0-5.176,0c-.13,0-.26,0-.391,0-.838-.008-1.307-.367-1.3-.992s.458-.957,1.275-.961c.944-.005,1.888,0,2.832,0h.548c.03-.589.027-1.123.093-1.649a.867.867,0,0,1,.872-.766.9.9,0,0,1,.948.617,2.171,2.171,0,0,1,.072.675c.011.354,0,.709,0,1.123.721,0,1.385-.005,2.048,0,.618.006,1.238-.006,1.852.048a.884.884,0,0,1,.795.9.939.939,0,0,1-.791.963,2.181,2.181,0,0,1-.241.036c-.842.07-.828.073-1.087.923a11.754,11.754,0,0,1-1.8,3.6c-.135.182-.265.366-.47.652,1.029.742,2.039,1.475,3.054,2.2.225.16.479.278.7.437a.973.973,0,0,1,.346,1.358.935.935,0,0,1-1.362.282c-1.185-.8-2.341-1.638-3.5-2.468a5.338,5.338,0,0,1-.46-.41c-.844.646-1.656,1.289-2.493,1.9-.459.334-.954.62-1.442.912-.623.374-1.2.287-1.5-.211-.32-.532-.125-1.042.5-1.474,1.068-.739,2.117-1.5,3.171-2.264a3.3,3.3,0,0,0,.327-.3" transform="translate(-91.289 -41.266)" fill="#00e785"/>
    <path id="Path_21147" data-name="Path 21147" d="M322.23,196.325c-.158.569-.327,1.111-.456,1.662a.7.7,0,0,1-.849.607,2.863,2.863,0,0,1-.8-.194c-.629-.266-.745-.538-.548-1.184q1.291-4.242,2.587-8.483a1.42,1.42,0,0,1,1.612-1.1,1.439,1.439,0,0,1,1.648,1.122q1.273,4.146,2.543,8.293c.269.877.021,1.3-.879,1.514-.793.186-1.1,0-1.323-.78-.131-.467-.135-1.119-.445-1.346-.335-.244-.962-.1-1.461-.106-.535-.01-1.071,0-1.632,0m1.618-5.592-.1-.011-1.031,3.775h2.157l-1.023-3.764" transform="translate(-288.214 -169.26)" fill="#00e785"/>
    <path id="Path_21148" data-name="Path 21148" d="M253.388,137.641a.977.977,0,0,1,.949.978.988.988,0,0,1-.991.943.968.968,0,0,1-.941-.985.952.952,0,0,1,.982-.936" transform="translate(-227.693 -124.165)" fill="#00e785"/>
    <path id="Path_21149" data-name="Path 21149" d="M338.8,1.877c.616.118,1.225.2,1.813.352a8.615,8.615,0,0,1,6.356,8.179.97.97,0,0,1-.929,1.072.96.96,0,0,1-.977-1.021,6.7,6.7,0,0,0-5.281-6.475c-.3-.069-.617-.1-1.017-.162.148.163.235.251.312.346a.959.959,0,0,1-.06,1.3.919.919,0,0,1-1.27.043q-1.05-.994-2.043-2.046A.892.892,0,0,1,335.77,2.2q.943-.967,1.911-1.91a.938.938,0,0,1,1.343-.006.967.967,0,0,1,0,1.348c-.076.085-.154.167-.228.248" transform="translate(-302.626 -0.001)" fill="#00e785"/>
    <path id="Path_21150" data-name="Path 21150" d="M88.438,325c-.615.123-1.209.279-1.812.357a8.616,8.616,0,0,1-8.968-5.183.97.97,0,0,1,.457-1.343.96.96,0,0,1,1.29.578,6.7,6.7,0,0,0,7.331,4.009c.308-.05.609-.14,1-.233-.2-.1-.312-.144-.419-.2a.96.96,0,0,1-.434-1.226.919.919,0,0,1,1.161-.518q1.347.525,2.663,1.126a.892.892,0,0,1,.415,1.2q-.51,1.251-1.051,2.489a.938.938,0,0,1-1.242.511.967.967,0,0,1-.512-1.247c.039-.107.08-.213.118-.316" transform="translate(-69.961 -287.536)" fill="#00e785"/>
  </g>
</svg>
