<svg xmlns="http://www.w3.org/2000/svg" xmlns:xlink="http://www.w3.org/1999/xlink" width="224.025" height="78.593" viewBox="0 0 224.025 78.593"><defs><clipPath id="a"><rect width="224.025" height="78.593" fill="none"/></clipPath></defs><g clip-path="url(#a)"><path d="M200.5,0V.931l-.594.592h-2.767V3.413c0,7.816.012,15.631-.013,23.447a7.952,7.952,0,0,0,.609,3.372,7.628,7.628,0,0,0,3.455,1.1v1.716H188.219V31.32a8,8,0,0,0,2.515-.555l1.1-1.1V5.7l-10.9,27.4h-1.12c-.059-.054-.192-.117-.219-.21-.793-2.708-2.123-5.2-3.142-7.823-.806-2.069-1.851-4.081-2.66-6.156-1.042-2.672-2.221-5.29-3.295-7.946a42.4,42.4,0,0,0-2.7-6.15,3.17,3.17,0,0,0-.147,1.633c-.012,7.072.058,14.144-.043,21.214-.036,2.516,1.057,3.215,3.661,3.614a4.9,4.9,0,0,1,.088,1.787h-9.612a5.5,5.5,0,0,1-.053-1.7,4.654,4.654,0,0,0,3.584-1.655c.808-4.636.443-9.245.489-13.839.046-4.652.011-9.3.007-13.956a1.942,1.942,0,0,0-.1-.4h-3.41l-.594-.592q0-.466,0-.931h9.709c.49.475.44,1.176.705,1.755.881,1.925,1.781,3.861,2.53,5.829,1.264,3.322,2.782,6.536,4.023,9.866.879,2.359,2.123,4.574,2.889,6.985a2.707,2.707,0,0,0,.481.64c.4-1,.74-1.848,1.091-2.694.57-1.375,1.244-2.717,1.7-4.128.815-2.512,1.876-4.933,2.835-7.382a75.46,75.46,0,0,1,3.491-8.408c-.128-.946.858-1.536.789-2.462Z" transform="translate(-101.187)" fill="#2d1a0d"/><path d="M98.871,0c-.029.369.23.358.483.374a8.9,8.9,0,0,1,4.234,1.487c1.71,1.105,2.185,2.066,2.794,4.057.576,1.887.237,3.756.3,5.628a9.151,9.151,0,0,1-2.1,4.5A10.62,10.62,0,0,1,99.5,18.638c-2.31.509-4.627.276-6.943.346-.773.024-1.595-.177-2.276.854,0,1.375-.025,3.1.007,4.833.031,1.628-.253,3.284.562,5.143.853,1.242,2.376,1.588,4.2,1.426.126.67.267,1.3-.44,1.845H81.022V31.232a6.382,6.382,0,0,0,2.74-.392,4.211,4.211,0,0,0,1.679-3.83c-.027-8.125-.012-16.249-.012-24.374V1.127h-3.56C81.578.733,81.744.353,81.694,0ZM90.347,1.489V17.746c1.9.494,3.676-.16,5.476-.306A6.86,6.86,0,0,0,97.674,17c2.445-.955,4.47-3.648,4.173-6.008a2.034,2.034,0,0,1,.393-1.324,2.7,2.7,0,0,1-.37-2.087A5,5,0,0,0,101,4.6a7.4,7.4,0,0,0-5.588-3.072,44.362,44.362,0,0,0-5.064-.038" transform="translate(-50.718)" fill="#2d1a0d"/><path d="M555.179,47.934H544.09A4.577,4.577,0,0,1,544,46.2l2.1-.6a2.988,2.988,0,0,0,.5-1.762c-.1-.661.406-1.195.392-1.89q-.092-4.46,0-8.923c.018-.81-.5-1.45-.427-2.266a3.368,3.368,0,0,0-.3-2.1,5.279,5.279,0,0,0-1.315-1.914h-3.735a5.9,5.9,0,0,0-2.994,3.263c-.082.217-.261.407-.208.655.26,1.231-.482,2.342-.395,3.566.083,1.172.018,2.354.018,3.531q0,1.952,0,3.9a10.673,10.673,0,0,0,.971,3.707c.14.42.679.19.894.511.258.385.708.04,1.065.3V47.85H529.09V46.1a16.631,16.631,0,0,0,2.008-.345c.9-.144.8-.969,1.251-1.315V25.618h-3.131c-.322-.452-.119-.895-.2-1.452,2.464-.131,4.915-.008,7.319-.069.81,1.308.371,2.856,1.1,4.1,1.049-1.9,3.6-4.076,5.586-4.4a8.929,8.929,0,0,1,6.389,1.111,5.489,5.489,0,0,1,2.04,3.045,6.583,6.583,0,0,1,.385,2.265q-.069,3.624-.008,7.25c.044,2.43-.31,4.883.558,7.532a3.627,3.627,0,0,0,2.793,1.068Z" transform="translate(-331.154 -14.803)" fill="#2d1a0d"/><path d="M23.135,0q0,.465,0,.93l-.594.59H18.654V24.041a16.77,16.77,0,0,1-1.033,5.147,6.02,6.02,0,0,1-4.068,3.976c-2.479.925-5.012.739-7.534.668a8.931,8.931,0,0,1-2.985-.854,7.067,7.067,0,0,1-3.034-3V26.6l1.4-1.243A1.8,1.8,0,0,0,2.6,24.918c.26.133.524.391.769.374,1.142-.08,1.054.958,1.448,1.536.116.169.04.486.014.731a7.169,7.169,0,0,0,.843,3.975c1.292.86,2.792.334,4.187.494.073-.073.108-.137.162-.157,2.576-1,3.368-3.122,3.383-5.6.045-7.746.016-15.492.016-23.238V1.52H9.91l-.481-.479C9.2.732,9.369.353,9.32,0Z" fill="#2d1a0d"/><path d="M400.758,40.02l-1.5,1.3c-.214.686.406,1.036.435,1.569a3.752,3.752,0,0,0,2.046.478c.428-.059.872.018,1.3-.015,2.639-.2,5.224.511,7.871.448a7.936,7.936,0,0,1,3.32.917,5.841,5.841,0,0,1,2.919,3.606,7.277,7.277,0,0,1-.125,5.035c-1.019,3.044-3.115,4.31-5.574,5.236a10.822,10.822,0,0,1-4.534.784c-1.239-.079-2.487-.015-3.731-.016a26.121,26.121,0,0,1-5.124-1.132,6.882,6.882,0,0,1-2.495-2.387,4.561,4.561,0,0,1-.4-3.329,2.871,2.871,0,0,1,2.513-2.1,3.938,3.938,0,0,1,1.5.908c.216.294-.205.947.516,1.223a2.6,2.6,0,0,0-.419,2.207,5.1,5.1,0,0,1,.793,1.544c.425.175.867.319,1.271.532a5.361,5.361,0,0,0,2.706.685c1.492-.04,2.99.07,4.477-.03a7.31,7.31,0,0,0,5.341-2.433c.288-.334.181-.856.682-1.067-.09-1.111.226-2.276-.409-3.395-.1-.229-.439-.071-.592-.228a3.854,3.854,0,0,0-2.927-1.045c-1.329-.008-2.586-.538-3.953-.4a17.283,17.283,0,0,1-4.1-.014,11.078,11.078,0,0,1-3.711-.915,2.374,2.374,0,0,0-.853-.16l-2.063-2.131a5.938,5.938,0,0,1-.023-3.69c2.205-2.483,3.393-2.676,5.956-3.3a3.144,3.144,0,0,0-.725-.546c-2.911-1.043-3.487-1.824-4.34-4.115a10.289,10.289,0,0,1,.457-8.27,11.384,11.384,0,0,1,3.261-3.285,9.185,9.185,0,0,1,6.111-1.44,10.622,10.622,0,0,1,3.581.785,7.606,7.606,0,0,1,3,1.789h1.491a3.041,3.041,0,0,0,.95-1.631c.53-1.711.93-2,2.8-2.085l1.3,1.347c0,.7,0,1.444,0,2.188-1.066,1.858-2.412,2.5-4.722,2.476-.422.571.2.987.216,1.467.066,1.547.082,3.1.008,4.649-.067,1.384-1.5,3.351-2.72,4.277-.853.648-1.844,1-2.712,1.557-.928.6-2.009.506-2.97.963a9.668,9.668,0,0,1-2.442.354c-1.281.214-2.505.638-3.667.84M410,34.62c-.23-1.016.524-1.911.452-2.95-.077-1.106-.023-2.223-.016-3.335a8.232,8.232,0,0,0-1.125-3.983,3.717,3.717,0,0,0-3.6-1.789c-2.123.039-4.049,2.208-4.238,4.4-.027.307.126.725-.026.908-.691.83-.32,1.775-.315,2.644s-.424,1.841.337,2.626a5.41,5.41,0,0,0,1.22,3.347,5.7,5.7,0,0,0,6.155.021c.112-.741,1.036-1.057,1.152-1.886" transform="translate(-247.271 -12.459)" fill="#2d1a0d"/><path d="M465.462,26.115c.435-.4.975-.9,1.518-1.4a7.537,7.537,0,0,1,3.315-1.434,16.5,16.5,0,0,1,2.26-.389c1.163-.147,2.362.018,3.538-.063.592-.041.911.6,1.531.413.472-.14.911.24,1.341.314,2.055.353,2.859,1.932,3.715,3.494a.59.59,0,0,1,.084.334c-.218,1.529.456,2.961.415,4.5-.107,4.019-.036,8.043-.036,11.98.71.992,1.652.417,2.4.6a3.476,3.476,0,0,0,1.064-2.216c.34-.025.64-.123.922.049.377,1.1-.126,2.106-.365,3.144a5.667,5.667,0,0,1-6.932,1.876,10.576,10.576,0,0,1-2.425-2.947,13.691,13.691,0,0,1-3.017,2.614,16.577,16.577,0,0,1-3.8,1.163c-1.341.325-2.484-.633-3.577-.757a6.834,6.834,0,0,1-3.129-7.81,3.953,3.953,0,0,0,.382-.732c.859-2.329,2.822-3.311,4.963-4.081a20.459,20.459,0,0,1,8.171-1.478c.447-2.1-.168-4.117-.329-6.113-.945-2.474-2.974-2.714-5.313-2.393l-1.788.921c-.763.863-.729,2.038-1,3.085a5.118,5.118,0,0,1-.687,1.579c-.358.54-1.147.182-1.6.656-.086.091-.436.065-.684-.088a4.96,4.96,0,0,1-1.538-1.216,6.446,6.446,0,0,1,.6-3.6m3.493,16.328a4.308,4.308,0,0,0,2.513,2.72c2.882.3,4.763-1.28,6.354-3.074V34.853c-.975-.4-1.738.185-2.527.349a17.554,17.554,0,0,0-3.371,1.37l-2.359,2.257a6.711,6.711,0,0,0-.61,3.613" transform="translate(-290.484 -14.287)" fill="#2d1a0d"/><path d="M283.464,48.125a8.47,8.47,0,0,1-5.7-1.513,10.392,10.392,0,0,1-4.588-6.146,21.881,21.881,0,0,1-.706-6.216,15.3,15.3,0,0,1,1.141-4.927,10.609,10.609,0,0,1,4.169-4.967,13.93,13.93,0,0,1,2.9-1.123,7.7,7.7,0,0,1,3.56-.423c3.25.332,6.214,1.414,8.141,4.126a12.516,12.516,0,0,1,2.187,5.24,17.159,17.159,0,0,1,.276,4.321c-.3,3.327-1.181,6.48-3.748,8.859a14.552,14.552,0,0,1-5.021,2.725,8.492,8.492,0,0,1-2.614.043m5.438-5.368c0-.422-.15-.931.028-1.264a6.013,6.013,0,0,0,.332-3.022c.008-1.023.4-1.965.441-3,.074-1.964-.441-3.85-.5-5.795a4.441,4.441,0,0,0-1.782-3.705,6.107,6.107,0,0,1-.863-.843,8.959,8.959,0,0,0-5.749-.011c-.356.355-.742.759-1.149,1.141a4.027,4.027,0,0,0-1.167,2.3c-.144.871-.674,1.7-.416,2.628s-.323,1.74-.392,2.633c-.2,2.636.372,5.222.427,7.841a4.441,4.441,0,0,0,.445,1.841c.5.927.736,2.087,2.022,2.515a10.666,10.666,0,0,0,4.027.626c.619-.7,1.873-.086,2.333-1.117,1.116-.2.913-1.4,1.516-2.006.177-.177.114-.579.45-.756" transform="translate(-170.55 -14.25)" fill="#2d1a0d"/><path d="M352.109,27.619h-2c-1.828.751-2.641,2.3-3.4,4.222,0,3.649,0,7.618.007,11.586a4.67,4.67,0,0,0,.094,1.257c.333,1.235,1.431,1.251,2.337,1.523a5.354,5.354,0,0,0,1.483.024c.3.236.163.566.182.857s0,.6,0,.951H337.464V46.277h2.145c.676-.416,1.387-.635,1.847-1.415.861-6.219.149-12.613.469-19.055h-4.37a2.161,2.161,0,0,1-.1-1.491h8c.179,1.155.718,2.268.487,3.465l.627.625a10.719,10.719,0,0,1,2.943-3.739c.529.217,1-.265,1.541-.438a6.091,6.091,0,0,1,4,.022c1.972.678,2.855,1.757,2.861,3.754,0,.309,0,.618,0,.916-.685.707-1.381,1.477-2.454,1.278a2.366,2.366,0,0,1-2.077-1.68c-.166-.591-.968-.441-1.279-.9" transform="translate(-211.187 -14.962)" fill="#2d1a0d"/><path d="M233.66,184.036V169.357h7.19a6.294,6.294,0,0,1,2.229,1.751,4.014,4.014,0,0,1,.206,3.9c-.319.766-1.192.914-1.81,1.527a5.687,5.687,0,0,1,2.212,1.932,3.783,3.783,0,0,1-.315,3.99,4.689,4.689,0,0,1-2.04,1.618,20.834,20.834,0,0,1-7.271.346c-.147-.019-.266-.248-.4-.385m6.491-1.709c.714-.657,1.453-1.364,1.29-2.414-.159-1.021-.349-2.136-1.884-2.362H236.24c0,.857,0,1.652,0,2.448,0,.779,0,1.558.008,2.328h3.9m-.021-6.708c.6-.434.678-1,.916-1.36v-1.782a3.481,3.481,0,0,0-1.744-1.267h-2.978v4.409Z" transform="translate(-146.266 -106.014)" fill="#8a512f"/><path d="M305.546,169.2h2.6c1.017,1.88,2.1,3.723,3.027,5.64s2.131,3.7,2.522,6.041c.732-1.405-.216-2.543-.141-3.733.082-1.3.019-2.6.019-3.906v-3.967h2.2v15.122h-2.42c-1.829-3.631-4.059-7.143-5.594-11.067h-.411c-.05.144-.153.285-.116.355a2.683,2.683,0,0,1,.381,1.34c-.036,3.1-.018,6.192-.018,9.363h-2.165c-.217-4.223-.146-13.659.112-15.188" transform="translate(-191.114 -105.914)" fill="#8a512f"/><path d="M46.166,184.495H43.679c-1.276-1.906-1.923-4.342-3.554-6.218h-1.68v5.689l-.6.6H35.989a138.494,138.494,0,0,1-.135-15.2H42.7c.953.542,2.1.876,2.831,2.3.64,2.052.879,4.374-1.333,5.835-.518.492-.847.294-1.135.373l-.533.531c.4.285.868.407,1.131.964.713,1.509,1.555,2.958,2.378,4.413.125.22.269.386.128.713m-7.725-7.747c.693,0,1.249.005,1.805,0a3.021,3.021,0,0,0,3-1.664c.007-1.535.366-3.221-1.824-3.863H38.441Z" transform="translate(-22.362 -106.019)" fill="#8a512f"/><path d="M130.843,184.576h-2.606l-1.016-2.969H121.88c-.6.9-.552,2.059-1.4,2.9H118.8c-.389-1.285.378-2.352.733-3.392.926-2.709,1.86-5.422,2.736-8.145a25.6,25.6,0,0,0,1.017-3.578h2.757l4.8,15.18m-8.517-4.9h4.324c-.248-.921-.451-1.759-.7-2.582-.235-.768-.583-1.506-.769-2.283-.2-.845-.079-1.772-.7-2.528l-2.148,7.394" transform="translate(-74.297 -106.038)" fill="#8a512f"/><path d="M3.628,178.974V184.5H1.513l-.462-.461V169.353H8.387a6.974,6.974,0,0,1,2.681,2.724v4.068a4.582,4.582,0,0,1-2.733,2.5,3.589,3.589,0,0,1-1.163.331c-1.116-.014-2.234,0-3.544,0m.065-7.8v5.983c1.484-.219,2.966.318,4.066-.353a2.873,2.873,0,0,0,.735-2.19c-.049-.733-.011-1.472-.011-2.089-1.275-1.813-3.06-1.327-4.791-1.351" transform="translate(-0.658 -106.011)" fill="#8a512f"/><path d="M268.165,184.562h-1.481c-.181-.121-.176-.3-.193-.484-.1-1.1.8-1.949.751-3.034,1.125-2.1,1.412-4.485,2.229-6.693.6-1.615,1.09-3.268,1.656-4.986h2.617c1.587,4.98,3.188,10,4.823,15.138h-2.594c-.64-.789-.418-1.964-1.031-2.881h-5.268c-1.044.58-.45,2.091-1.508,2.941m4.106-12.594c-.281,1.394-.732,2.711-1.094,4.052-.323,1.2-1.183,2.3-.888,3.705.747,0,1.425.03,2.1-.009a5.4,5.4,0,0,0,2.015-.136c-.673-2.6-1.617-5.045-2.133-7.613" transform="translate(-166.812 -106.018)" fill="#8a512f"/><path d="M351.961,169.27h2.561c-1.608,2.512-3.721,4.491-5.337,6.988,1.793.435,2.166,2.114,3.008,3.339,1.008,1.468,1.775,3.1,2.7,4.763a12.747,12.747,0,0,1-2.533.192c-1.615-2.179-2.777-4.727-4.368-7.09a3.024,3.024,0,0,0-1.385,2.825c.068,1.354.016,2.715.016,4.146h-2.119c.042.034-.013,0-.049-.045a.285.285,0,0,1-.07-.155c0-4.951,0-9.9,0-14.922H346.5c-.03-.027.024.008.058.057a.3.3,0,0,1,.062.159c0,2.1,0,4.2,0,6.672l5.336-6.93" transform="translate(-215.576 -105.959)" fill="#8a512f"/><path d="M194.262,169.374v1.752h-5.853v4.489h5.074v1.793c-.039.062-.2.093-.4.092-1.547,0-3.094,0-4.7,0v4.8h6.239v2.2H185.75V169.374Z" transform="translate(-116.275 -106.024)" fill="#8a512f"/><path d="M94.911,169.216h2.634l-4.85,15.157H90.427c-1.907-4.825-3.195-9.968-4.994-15.063a13.878,13.878,0,0,1,2.614-.154c1.1,3.849,2.61,7.505,3.26,11.426l.545.69c.065-2.2.921-4,1.438-5.895a41.522,41.522,0,0,1,1.6-4.928,3.779,3.779,0,0,0,.019-1.232" transform="translate(-53.479 -105.887)" fill="#8a512f"/><path d="M157.093,184.523h-2.262V171.762l-.6-.6H150.8a4.828,4.828,0,0,1-.1-1.807h10.358a5.8,5.8,0,0,1,.052,1.768H157.62l-.527.526Z" transform="translate(-94.311 -106.015)" fill="#8a512f"/><rect width="2.117" height="15.128" transform="translate(26.931 63.385)" fill="#8a512f"/><path d="M55.823,77.965a3.23,3.23,0,0,1,2.026-2.224c1.688-.344,2.829.4,3.559,2.074v1.762l-1.761,1.648a3.481,3.481,0,0,1-3.076-.9,2.793,2.793,0,0,1-.748-2.362" transform="translate(-34.929 -47.361)" fill="#2d1a0d"/><path d="M137.926,77.284c.046.467-.136,1,.465,1.185-.461.915-.524,1.868-1.391,2.38a3.943,3.943,0,0,1-2.133.36c-2.449-.531-2.153-2.224-2.141-3.787,1.859-2.518,3.411-2.23,5.2-.138" transform="translate(-83.073 -47.339)" fill="#2d1a0d"/></g></svg>