<svg xmlns="http://www.w3.org/2000/svg" xmlns:xlink="http://www.w3.org/1999/xlink" width="214.452" height="103.331" viewBox="0 0 214.452 103.331"><defs><clipPath id="a"><rect width="214.452" height="103.33" fill="none"/></clipPath></defs><g transform="translate(0 0)"><g transform="translate(0 0)" clip-path="url(#a)"><path d="M16.632.843C36.146-.339,51.52,7.939,62.361,24.5,73.793,8.53,85.816,1.04,99.22.449,77.341,6.756,64.529,21.934,59.207,44.8,51.717,25.876,36.934,10.7,16.632.843" transform="translate(28.9 0.781)" fill="#00a1ed" fill-rule="evenodd"/><path d="M16.632.843C36.146-.339,51.52,7.939,62.361,24.5,73.793,8.53,85.816,1.04,99.22.449,77.341,6.756,64.529,21.934,59.207,44.8,51.717,25.876,36.934,10.7,16.632.843Z" transform="translate(28.9 0.781)" fill="none" stroke="#00a1ed" stroke-miterlimit="10" stroke-width="0.5"/><path d="M30.384.843C46.941,1.04,63.1,4,75.719,24.693,86.165,9.713,98.386,1.632,112.578.449,93.458,6.165,78.872,18.583,72.959,44.4,65.666,26.073,52.263,11.487,30.384.843" transform="translate(52.795 0.781)" fill="#00a1ed" fill-rule="evenodd"/><path d="M30.384.843C46.941,1.04,63.1,4,75.719,24.693,86.165,9.713,98.386,1.632,112.578.449,93.458,6.165,78.872,18.583,72.959,44.4,65.666,26.073,52.263,11.487,30.384.843Z" transform="translate(52.795 0.781)" fill="none" stroke="#00a1ed" stroke-miterlimit="10" stroke-width="0.5"/><path d="M95.916,59.138v-.2H94.733v-.2h-.788v-.394h-.788v-.2h-.394v-.394h-.591v-.2h-.591v-.2h-.394V56.97h-.591v-.2H90v-.2h-.394v-.394h-.394v-.2h-.591v-.2h-.2v-.394h-.591v-.2h-.2V55h-.2V54.6h-.394v-.2h-.2v-.2h-.2v-.394h-.394v-.394h-.2v-.394h-.2v-.2h-.394v-.2h-.2v-.591h-.2v-.2h-.394v-.394h-.2v-.394h-.2v-.394h-.394v-.2h-.2v-.591h-.2v-.2H83.1v-.2h-.2v-.591h-.2v-.2h-.394V48.3h-.2V47.9h-.2v-.394h-.394v-.2h-.2V46.72h-.2v-.2h-.394v-.2h-.2v-.591h-.394v-.2h-.2v-.394h-.2v-.394h-.394v-.394h-.2v-.2h-.2v-.591H78.57v-.2h-.2v-.2h-.2v-.591h-.394v-.2h-.2V41.99h-.2V41.6h-.394V41.2h-.2V41h-.2v-.591h-.394v-.2h-.2v-.2h-.2v-.591h-.394v-.394h-.2v-.2h-.788v.2h-.2V53.816h.2V55h.2v.788h.394v.788h.2v1.577H67.73v-1.38h.394v-.788h.2v-.591h.2V54.6h.394V51.845h.2V33.12h-.2V29.966h-.394v-.788h-.2v-.591h-.2v-.591H67.73V27.6h-.2v-.394h-.2v-.394h-.394v-.394h-.2v-.394h.2V25.63h.591v-.2h8.476v.2H76.6v.394h.2v.2h.2v.2h.394v.591h.2v.2h.2V27.6h.394v.2h.2v.591h.2v.2h.394v.2h.2v.591h.2v.2h.394v.394h.2v.394h.2v.394h.394v.2h.2v.591h.394v.2h.2v.2h.2v.394h.394v.591h.2v.2h.2v.2h.394v.591h.2v.2h.2v.2H83.5v.591h.2v.2h.2v.394h.394v.394h.2v.394h.2v.2h.394v.2h.2v.591h.2v.2h.394v.394h.2v.394h.2v.394h.394v.2h.2v.591h.2v.2h.394v.394h.2v.394h.2v.394h.394V41h.2V41.6h.2v.2h.394v.2h.2v.394h.394v.2h.2v.2H90v.394H90.4v.2h.2v.2h.2v.394h.394v-.394h.2v-.394h.2v-.788h.394V31.74h-.394V28.783h-.2v-.788h-.2V27.6h-.394v-.591h-.2v-.2h-.2V25.63h.394v-.2h6.9v.2h.591v.591h.2v.2h-.2v.394h-.394v.394h-.2V27.8h-.2v.788H97.1v.986h-.2V57.561h-.2v.788H96.31v.591h-.2v.2Z" transform="translate(115.974 44.193)" fill="#1a1818" fill-rule="evenodd"/><path d="M43.7,59.244V58.85H41.731v-.2H40.549v-.394H39.366v-.2h-.788v-.2h-.788V57.47H37.2v-.2H37v-.591h-.2v-.394h-.2V55.5h-.394V54.316h-.2V53.134h-.394V51.951h-.2v-.394h.2v-.394h.394v-.2h.591v.2h.2v.394H37.2v.2h.394v.2h.394v.394h.591v.2h.591v.2h.788v.394h.788v.2h.788v.2h.986v.394H44.1v.2h2.759v-.2h1.38v-.394h.394v-.2h.591v-.2h.2V52.74h.394v-.2h.2v-.2h.2v-.394H50.6v-.788h.2V49.586h-.2v-.394h-.394V48.8h-.2V48.4h-.2v-.394h-.394v-.2h-.2v-.2h-.2v-.394h-.591v-.2h-.2v-.2h-.591v-.394h-.591v-.2h-.591v-.2h-.394v-.394h-.591v-.2h-.591v-.2h-.394v-.394H43.9v-.2h-.591v-.2h-.394v-.394h-.591v-.2h-.591v-.2h-.394v-.394h-.591v-.2h-.2v-.2h-.591V42.49h-.2v-.2h-.394v-.2h-.591V41.7h-.2v-.2h-.2v-.2h-.394v-.394h-.2v-.2h-.2v-.591H37.2v-.2H37v-.591h-.2v-.591h-.2v-.394h-.394v-.788h-.2V36.38h-.394V33.423h.394V32.24h.2v-.788h.394v-.788h.2v-.591H37v-.2h.2v-.591h.394v-.2h.2v-.2h.2V28.5h.394v-.2h.2v-.2h.2v-.394h.394v-.2h.591v-.2h.2v-.394h.591v-.2h.394v-.2h.591V26.13h.788v-.2h.788v-.2H44.1v-.394h1.577v-.2H50.6v.2h1.774v.394h1.38v.2h.788v.2h.788v.394h.394v.2h.394v.2h.2v3.154h-.2v.788h-.394v.591h-.2v.2h-.2v-.2h-.788v-.2h-.591v-.394h-.788v-.2h-.788v-.2H51.39v-.394H47.842v.394h-.788v.2h-.2v.2h-.591v.394h-.2v.2h-.394v.2h-.2v.394h-.2v.788h-.394v.788h.394v.788h.2V34.8h.2V35.2h.394v.2h.2v.2h.2v.394h.591v.2h.2v.2h.591v.394h.788v.2h.591v.2h.591v.394H50.6v.2H51v.2h.591v.394h.591v.2h.394v.2h.591v.394h.591v.2h.394v.2h.591v.394h.2v.2h.591v.394h.2v.2h.394v.2h.2v.394h.394v.2h.2v.2h.2V42.1H57.5v.2h.2v.2h.2v.394h.394v.2h.2v.591h.2v.2h.394v.591h.2v.394h.2v.788h.394v1.38h.2v3.154h-.2v1.38h-.394v.788h-.2v.394h-.2v.591h-.394v.591h-.2v.2h-.2v.591h-.394v.2h-.2v.2h-.2V55.5h-.394v.2h-.2v.2h-.2v.394h-.394v.2h-.2v.2h-.591v.394h-.2v.2H54.74v.2h-.591v.394h-.394v.2h-.788v.2h-.788v.394H51v.2H49.221v.394Z" transform="translate(61.553 43.692)" fill="#1a1818" fill-rule="evenodd"/><path d="M63.643,58.744v-.394H62.46v-.2h-.788v-.394h-.788v-.2h-.591v-.2H59.9V56.97H59.5v-.2h-.394v-.2h-.394v-.394h-.2v-.2h-.2v-.2h-.394v-.394h-.2v-.2h-.2V54.6h-.394v-.2h-.2v-.591h-.2v-.788H56.35v-.788h-.2V51.056h-.2V28.586h-.394V27.8h-.2v-.591h-.2v-.394h-.394v-.394h-.2v-.394h.2V25.63h.591v-.2H65.417v.2h.591v.394h.2v.394h-.2v.591h-.394v.2h-.2v.788h-.2v1.183h-.394V48.691h.394v.986h.2v.788h.2v.591h.394v.2h.2v.2h.2v.394H66.8v.2h.2v.2h.2v.394h.788v.2h2.759v-.2h.591v-.394h.394v-.2h.394v-.2h.2v-.394h.2v-.2h.394v-.591h.2v-.394h.2v-.591H73.7v-.788h.2V47.311h.2V28.783h-.2v-.788h-.2v-.788H73.3v-.2h-.2v-.591h-.2v-.394h.2V25.63H73.7v-.2h10.25v.2h.591v1.183h-.394v.2h-.2V27.6h-.2v.394h-.394v1.183h-.2v25.23h.2v.986h.394v.788h.2v.788h.2v1.183H74.878v-.394h-.2v-.2h-.2v-.788H74.09v-1.38h-.2v-.2H73.1v.2h-.2v.394h-.394v.2h-.2v.2h-.2v.394h-.591v.2h-.2v.2h-.591v.394h-.394v.2H69.95v.2h-.788v.394h-.788v.2H67.191v.394Z" transform="translate(94.831 44.193)" fill="#1a1818" fill-rule="evenodd"/><path d="M16.163,58.349v-.2h-.788v-.394h-.788v-.2h-.394v-.2H13.6V56.97h-.591v-.2h-.591v-.2h-.2v-.394h-.591v-.2h-.2v-.2h-.2v-.394h-.394v-.2h-.2V55h-.2V54.6h-.394v-.2h-.2v-.591h-.2v-.2H9.264v-.591h-.2v-.394h-.2v-.591H8.476v-.788h-.2v-.986h-.2V49.48H7.687v-.788h-.2V47.509h-.2V46.72H6.9v-.986H6.7v-.788H6.5v-.986H6.11v-.788h-.2v-.788h-.2V41.2H5.322v-.788h-.2v-.986h-.2v-.788H4.533V37.456h-.2v-.788h-.2v-.788H3.745v-.986h-.2v-.788h-.2V33.12H2.957v-.788h-.2V31.149h-.2V30.36H2.168v-.788h-.2v-.394H1.577v-.591h-.2v-.591h-.2V27.6H.788v-.394h-.2v-.394h-.2v-.394H0v-.394H.394V25.63H.788v-.2H9.264v.2h.591v.394h.2v.2h.394v.986h.2v1.183h.2v.986h.394v.788h.2v.986h.2v1.183h.394v.986h.2v.788h.2v.986h.394v1.183h.2v.986h.2v.788H13.6v.986h.2v1.183h.394V41.2h.2v.788h.2v1.183h.394v.788h.2v.394h.2v.591h.394v.2h.2v.591h.2v-.2h.394v-.394h.2v-.2h.2v-.591h.394v-.788h.2v-.986h.2V41.6h.394V40.413h.2v-.986h.2V38.245h.394v-.986h.2v-.986h.2V35.091h.394v-.986h.2V33.12h.2V31.937H20.5V29.572H20.1v-.788h-.2v-.788h-.2V27.6h-.394v-.591h-.2v-.2h-.2v-.788h.2V25.63h.591v-.2h7.884v.2h.591v.394h.2V27.6h.2v1.577h.394v.986h.2v.788h.2v.788h.394v1.183h.2v.788h.2V34.7h.394v.788h.2v.788h.2v.986h.394v.788h.2v.986h.2v.986h.394V41h.2v.788h.2v.788h.394v.788h.2v.788h.394v.591h.2v.394h.2v.394H34.3v.394h.2v-.2h.2v-.2h.394v-.394h.2v-.394h.2v-.788h.394v-.788h.2V41.99h.2V41.2h.394v-.986h.2v-.788h.2V38.245h.394v-.986h.2v-.788h.2v-.986h.394V34.7h.2v-.986h.2v-.788h.394V31.74h.2v-.986h.2V28.389h-.2V27.6h-.2v-.591h-.394v-.2h-.2v-.788h.2V25.63h.591v-.2h5.913v.2h.394v.394h.394v1.183h-.394v.788h-.2v.788h-.2v.788h-.394v1.183h-.2v.788h-.2v.788h-.394v.986h-.2v.788h-.2v.788h-.394v.788h-.2v.986h-.2v.788h-.394v.788h-.2v.788h-.2v1.183H41.59V41h-.2v.788H41v.986h-.2v.788h-.2v.788H40.21v.788h-.2v1.183h-.2v.788h-.394V47.9h-.2v.788h-.2v.986h-.394v.788h-.2v.788h-.2v.788h-.394v.986h-.2v.788h-.2V54.6h-.394v1.183h-.2v.788h-.2v.394h-.394v.591h-.2v.2h-.2v.394h-.394v.2h-.986v-.2h-.788v-.394h-.591v-.2h-.788v-.2h-.591V56.97H31.34v-.2h-.394v-.2h-.394v-.394h-.394v-.2h-.394v-.2h-.394v-.394h-.2v-.2h-.2V55H28.58V54.6h-.2V54.21h-.2v-.394h-.394v-.394h-.2V52.83h-.2v-.591H27v-.788h-.2v-.788h-.2v-.986h-.394v-.788h-.2V48.1h-.2v-.788h-.394v-.986h-.2v-.788h-.2v-.788h-.394v-.788h-.2V42.778h-.2V41.99H23.85V41.2h-.2v-.394h-.986V41.6h-.394v.986h-.2v.986h-.394v.788h-.2v1.183h-.2v.986h-.394v.986h-.2v1.183h-.2v.788H20.1v.986h-.2v.986h-.2v1.183h-.394v.986h-.2V54.6h-.2v.788h-.394v.788h-.2v.788h-.2v.591H17.74v.591h-.2v.2Z" transform="translate(0 44.193)" fill="#1a1818" fill-rule="evenodd"/><path d="M18.087,58.152v-1.38h.2v-.788h.394V55.2h.2V28.389h-.2V27.6h-.394v-.591h-.2v-.2h-.2v-.394H17.5v-.394h.394V25.63h.394v-.2H35.63v.2h.2v.394h.394v3.548h-.394v.788h-.2v.591h-.2v.2h-.394v-.2h-.591v-.2h-.788V30.36H32.082v-.2H28.928v.2h-.2v.394h-.394v.2h-.2v6.307h.2v.788h.394v.2h.2v.394H32.87v-.394h1.183v.394h.2v.2h.2v.2h.2v3.548h-.2v.788h-.2v.2h-.2v.394h-.788v-.394h-.788v-.2H28.928v.2h-.2v.394h-.394v.2h-.2v7.293h.2v.788h.394v.591h.394v.2h1.38v.394h4.928v-.394h1.183v-.2H37.4v-.2H38v-.394h.591v-.2h.2v-.2h.591v-.394h.591v.394h.2v.986h-.2v.986h-.394V55h-.2v.788h-.394v.788h-.2v.394h-.2v.591h-.394v.2H38v.394Z" transform="translate(30.401 44.193)" fill="#1a1818" fill-rule="evenodd"/><path d="M27.231,58.152v-1.38h.2v-.788h.2V55h.394V28.783h-.394v-.788h-.2v-.788h-.2v-.2h-.394v-.591h-.2v-.394h.2V25.63h.591v-.2h10.25v.2h.591v.394h.2v.394h-.2v.394h-.2v.394h-.394V27.6h-.2v.788h-.2V51.451h.2v.788h.2v.591h.591v.2h1.577v.394H44.38v-.394h1.38v-.2h.788v-.2h.788v-.394h.394v-.2h.788v.2h.394v1.38h-.394V54.6h-.2v1.183h-.2v.788H47.73v.394h-.2v.591h-.2v.2h-.394v.394Z" transform="translate(46.29 44.193)" fill="#1a1818" fill-rule="evenodd"/><path d="M45.591,58.152v-1.38h.2v-.788h.2V55h.394V28.783h-.394v-.788h-.2v-.788h-.2v-.2H45.2v-.591H45v-.394h.2V25.63h.591v-.2H58.4v.2h3.351v.394h1.183v.2h.788v.2h.788v.394H65.1v.2h.2v.2h.591V27.6h.2v.2h.591v.2h.2v.394h.394v.2h.2v.2h.2v.591h.394v.2h.2v.591h.2v.591h.394v.788h.2v.788h.2v4.336h-.2v.788h-.2v.788h-.394v.591h-.2v.591h-.2v.2h-.394v.591h-.2v.2h-.2v.394h-.394V41h-.2v.2h-.2V41.6H66.09v.2h-.2v.2H65.3v.394h-.2v.2h-.591v.2h-.394v.394h-.788v.2h-.788v.2H61.36v.394H60.177v.2H57.418v-.788h.2v-.591h.394v-.2h.2v-.2h.2v-.591H58.8v-.2h.2V41h.394v-.2h.2v-.591h.2v-.788h.394V38.245h.2V34.894h-.2v-.986h-.394V33.12h-.2v-.2h-.2v-.591h-.394v-.394h-.2v-.2H58.4v-.2h-.2v-.394h-.591v-.2h-.394v-.2h-1.38v.2h-.2v.2H55.25V53.816h.394V55.2h.2v.788h.2v.788h.394v1.38Z" transform="translate(78.192 44.193)" fill="#1a1818" fill-rule="evenodd"/></g></g></svg>