<?xml version="1.0" encoding="utf-8"?>
<!-- Generator: Adobe Illustrator 28.0.0, SVG Export Plug-In . SVG Version: 6.00 Build 0)  -->
<svg version="1.1" id="Layer_1" xmlns="http://www.w3.org/2000/svg" xmlns:xlink="http://www.w3.org/1999/xlink" x="0px" y="0px"
	 viewBox="0 0 591 138.9" style="enable-background:new 0 0 591 138.9;" xml:space="preserve">
<style type="text/css">
	.st0{fill:none;}
	.st1{fill:#00D396;}
	.st2{fill:#2D2C2C;}
	.st3{fill:#2B2A2A;}
	.st4{fill:#312F2F;}
</style>
<rect class="st0" width="591" height="138.9"/>
<path class="st1" d="M65.5,138.9c-6.7-0.5-11.3-1.2-16.7-3.2c-0.3-0.1-0.6-0.2-0.9-0.3C16.4,124.7-4.3,92.1,0.8,60.5
	C6.4,25.5,34.6,0.4,68.9,0c34.8-0.4,64,23.4,70.1,57.2c6.8,37.7-17.8,73.2-55.7,80.4C80.5,138.9,65.5,138.9,65.5,138.9 M71.3,46.4
	c-0.4,2.9-2.1,4-3.4,5.4C58.9,62,49.7,72.3,40.6,82.5c-2.5,2.7-4.5,5.6-1,8.8c3.6,3.2,6.3,0.6,8.7-2C61,75,73.7,60.7,86.3,46.5
	c1.9-2.1,3.9-4.1,2.3-7.3c-1.5-3.1-4.4-3-7.2-3c-12.1,0-24.1,0-36.2,0c-3.7,0-7.3,0.4-7.4,5.1c-0.1,4.7,3.4,5.2,7.2,5.2
	C53.7,46.3,62.3,46.4,71.3,46.4 M67.7,92.6C79,79.9,89.4,68.3,99.8,56.7c2.4-2.7,4.6-5.6,1.1-8.8c-3.5-3.3-6.3-0.9-8.7,1.8
	C79.4,64.1,66.6,78.5,53.8,92.9c-1.8,2-3.5,3.8-2.1,6.7c1.3,2.8,3.6,3.3,6.4,3.3c12.5,0,25,0,37.5,0c3.8,0,7.2-0.8,7.1-5.4
	c-0.1-4.1-3.3-5-6.9-4.9C86.8,92.6,78,92.6,67.7,92.6"/>
<path class="st2" d="M591,81c-2,1.9-4.8,2.9-7.6,2.7c-7.1-0.2-14.2,0.1-21.3-0.1c-4-0.1-4.5,1.2-2.7,4.4c3.4,6.1,11.9,8.3,19.3,4.6
	c3.2-1.6,6.5-3.8,8.9,0.4c2.5,4.4-1.2,6.9-4.4,8.4c-9.2,4.3-18.5,4.5-26.8-1.8c-8.7-6.6-10.4-15.9-8-25.9
	c2.1-9.3,7.8-15.5,17.4-17.7c8.8-1.9,18,3,22.8,12c0.7,1.4,0.4,3.5,2.5,4V81z M568.9,74.7c1.1,0.1,2.1,0.1,3.2,0
	c2.5-0.5,6.7,1.8,7.2-1.5c0.6-3.9-3.3-6.2-6.8-7.3c-3.3-1.1-7-0.5-9.8,1.4c-2.1,1.5-4.5,3.5-3.8,6.1s3.7,0.9,5.6,1.2
	C565.9,74.8,567.4,74.8,568.9,74.7"/>
<path class="st3" d="M304.9,97.2c0,2.8-0.8,4.8-3.2,5.5c-2.2,0.7-4.3,0.5-5.8-1.5c-0.6-0.9-1.1-1.8-1.6-2.8
	c-5-9.5-5.6-10.8-7.3-10.7c-3.8,0.1-24.8-0.9-28.6-0.4l-7.9,12.1c-2,3-4,4.5-7.2,3.1c-3.3-1.5-3.7-4.3-2.1-7.6
	c8.8-18.7,17.6-37.5,26.3-56.3c1.1-2.3,2.6-4,5.4-3.9c2.4,0.1,3.8,1.5,4.8,3.6c8.8,18.7,17.6,37.5,26.4,56.2
	C304.4,95.5,304.7,96.3,304.9,97.2 M272.7,52.4l-12,25.8h24L272.7,52.4"/>
<path class="st3" d="M213.9,45.4c-9,0-17.8,0-26.5,0c-4.1,0-8.4,0-8.2-5.6c0.2-5,4.1-5.1,8-5.1c11.4,0.1,22.9,0,34.3,0
	c3.1,0,6.5-0.8,8.4,3.1c1.7,3.5-0.7,5.7-2.3,8.1c-9.6,13.7-19.4,27.2-29,40.9c-1.1,1.5-2.1,3.2-3.8,5.7c9.8,0,18.7,0.1,27.6,0
	c4-0.1,7.9,0.4,8.1,5.2c0.1,5.3-4.1,5.5-8.3,5.5c-11.9-0.1-23.7-0.1-35.6,0c-2.7,0-5.3-0.1-6.8-2.7c-1.7-2.9-0.1-5.3,1.5-7.6
	c9.6-13.4,19.1-26.9,28.7-40.3C211.3,50.4,213.2,48.6,213.9,45.4"/>
<path class="st3" d="M368.2,79.7c0-6-0.1-12,0-18c0.1-5.9,2.8-7.9,8.2-5.7c2.4,1,4,0.2,6.1-0.3c15.3-3.8,25.5,4.1,25.7,19.6
	c0.1,7.3,0,14.6,0,21.8c0,3.9-1.2,7-5.7,6.8c-4.3-0.2-4.9-3.4-4.9-6.9c0-6.8,0.2-13.7-0.1-20.5c-0.3-8.3-3.2-11.4-9.9-11.2
	c-6.3,0.2-8.8,3.3-8.9,11.4c-0.1,6.4,0,12.8,0,19.3c0,3.8-0.1,7.8-5.2,7.9c-5,0.1-5.5-3.7-5.4-7.6C368.3,90.9,368.2,85.3,368.2,79.7
	"/>
<path class="st3" d="M502.8,74.8c-0.4,4.8,0.6,10.3-1,15.8c-2.9,9.8-10,14.3-21.9,13.5c-9.2-0.6-16.3-7-16.9-16.3
	c-0.6-9-0.2-18-0.2-27c0-3.3,1.8-5.4,5.1-5.4c3.6,0,5.3,2.2,5.3,5.8c0,7.7-0.1,15.4,0.1,23.1c0.2,5.5,2.3,9.5,8.8,9.7
	c5.7,0.1,9.3-2.2,9.5-8c0.3-7.5,0.2-15,0.3-22.5c0.1-3.8,0.2-8,5.2-8.1c5.3-0.1,5.8,4.1,5.7,8.2C502.7,67.2,502.8,70.6,502.8,74.8"
	/>
<path class="st2" d="M434.7,104.2c-6.2-0.1-11.9-1.7-16.4-6.2c-2.4-2.3-3.7-5.1-1.2-7.9c2.5-2.9,5.3-2,7.8,0.5
	c3.1,3.4,7.6,5.1,12.2,4.6c2.8-0.3,5.1-1.3,5.8-4.2c0.7-3.2-1.7-4.6-4.2-5.6c-3-1.2-6.1-2.1-9.1-3.1c-9.1-3.1-12.8-7.8-12-15
	c0.7-6.7,6.6-12.1,14.8-12.9c6.1-0.7,12.2,1.1,16.8,5.1c2.5,2.2,3.7,5,1.2,7.8c-2.4,2.6-5,1.6-7.3-0.6c-2.6-2.7-6.3-3.9-10-3.4
	c-2.4,0.3-4.6,1.6-5.1,4.2c-0.5,2.9,1.5,4.4,3.7,5.4c2.5,1.1,5.3,1.7,7.9,2.6c10.5,3.4,14.3,8.3,12.8,16.8
	C451.1,99.4,444,104.3,434.7,104.2"/>
<path class="st4" d="M356.5,69.9c0,8.8,0,17.6,0,26.4c0,4-0.7,7.7-5.5,7.8c-4.9,0.1-5.7-3.7-5.8-7.6c0-17.6,0-35.2,0-52.7
	c0-3.9,0.8-7.7,5.6-7.8c4.9-0.1,5.7,3.5,5.7,7.6C356.5,52.4,356.5,61.2,356.5,69.9"/>
<path class="st2" d="M512.1,80.5c0-5.8-0.2-11.6,0-17.3c0.2-6.4,3.6-8.4,9.1-5.1c2.1,1.3,3.2,0.3,4.5-0.4c4-2.2,8.6-3,13.1-2.2
	c3.1,0.5,5.4,2.3,5.1,5.5c-0.3,3.1-2.6,4.4-6,4.5c-12.2,0.3-15,3.3-15,15.3c0,5.6,0.1,11.1-0.1,16.7c-0.1,3.3-0.8,6.6-5.2,6.6
	c-4.6,0-5.6-3.3-5.6-7C512.1,91.6,512.1,86.1,512.1,80.5"/>
</svg>
