<svg xmlns="http://www.w3.org/2000/svg" xmlns:xlink="http://www.w3.org/1999/xlink" width="620.805" height="143.92" viewBox="0 0 620.805 143.92"><defs><clipPath id="a"><rect width="620.805" height="143.92" fill="none"/></clipPath></defs><g clip-path="url(#a)"><path d="M620.8,25.735c-2.115,2.885.011,7.963-2.774,9.28-2.365,1.12-6.307-.727-9.616-.452-5.27.438-8.471,4.033-8.608,10.2-.175,7.934-.2,15.879-.006,23.812.082,3.274-.584,4.651-4.291,4.592-8.745-.141-9.748-.91-9.75-9.573,0-11.742-.066-23.484.052-35.225.02-1.978-1.307-5.266,1.051-5.74,3.546-.712,8.059-1.757,10.791,1.611,1.878,2.315,2.375,1.95,4.466.411,5.722-4.209,12.069-5.043,18.685-1.9Z" fill="#393637"/><path d="M587.858,143.92c-.583-1.479-2.039-.688-2.985-1.154-1.351-.665-4.119-.028-3.255-2.975.678-2.312,1.773-3.374,4.711-2.5,6.961,2.08,10.27.634,12.737-4.946-2.771-.492-5.4.878-8.2.012-3.7-1.147-5.572-3.3-5.959-6.97-1.05-9.973,6.742-17.615,18.108-17.661a44.122,44.122,0,0,1,5.933.614c2.151.287,3.169,1.092,2.439,3.638-1.9,6.635-3.459,13.369-5.241,20.04-1.81,6.772-5.82,10.984-13.324,11.012-.326,0-.651.577-.976.886Zm3.782-21.034c-.222,2.115.259,4.583,3.524,4.789,2.892.183,5.667-.476,6.519-3.927.432-1.75.859-3.5,1.213-5.27.338-1.686,2.127-3.865.691-4.935-1.811-1.351-4.373-.611-6.513.568a9.545,9.545,0,0,0-5.434,8.775" fill="#3c393b"/><path d="M424.121,143.92c1.684-11.281,5.7-22,8.04-33.124a2.62,2.62,0,0,1,1.478-1.823c4.2-2.375,14.6-1.48,17.606,1.564,3.477,3.517,3.576,10.793.116,16.206-3.407,5.332-8.527,7.81-14.706,7.7-3.109-.055-4.57.67-4.772,3.917a6.133,6.133,0,0,1-3.768,5.557ZM447.1,118.725c.209-2.981-.677-5.162-4.023-5.679-3.221-.5-5.266.343-5.845,3.954a58.719,58.719,0,0,1-2.418,9.533c-.785,2.31-.2,2.858,2.086,2.805a10.635,10.635,0,0,0,10.2-10.613" fill="#3c393b"/><path d="M14.58,91.354c9.337-9.3,18.31-18.256,27.31-27.187Q70.85,35.43,99.836,6.716c8.458-8.378,20.524-8.886,28.578-1.231,8.231,7.823,8.288,20.227-.252,28.774-18.41,18.426-37,36.673-55.485,55.026A6.236,6.236,0,0,1,67.911,91.4c-17.561-.077-35.122-.044-53.331-.044" fill="#5aac34"/><path d="M33.077,133.986c12.041-12.265,24.109-24.476,36.052-36.807A8,8,0,0,1,75.667,94.5c10.9.32,21.934-1.012,32.39,3.58,14.439,6.342,23.112,17.137,26.169,32.525.506,2.546.156,3.448-2.743,3.44-32.892-.094-65.784-.06-98.406-.06" fill="#5aac34"/><path d="M393.016,27.214c10.694-8.7,20.7-8,31.591,1.776,5.687-7.051,13.155-8.852,21.8-7.3,8.9,1.6,15.137,8.458,15.453,18.038.332,10.08,0,20.181.152,30.27.042,2.779-1.134,3.2-3.553,3.269-9.174.263-10.473-.876-10.477-9.866,0-6.286.178-12.58-.066-18.857-.225-5.839-2.814-9.14-7.144-9.97-5.421-1.038-9.588.748-11.9,4.922-1.2,2.166-1.045,4.477-1.062,6.761-.059,7.775-.121,15.552.028,23.325.054,2.782-.81,3.658-3.673,3.706-9.286.156-10.683-1.066-10.687-10.377,0-5.956.091-11.913-.028-17.867C413.3,37.7,410.253,34.324,404,34.261c-6.335-.064-10.4,3.689-10.65,10.514-.276,7.6.026,15.22-.131,22.827-.05,2.35,1.683,5.784-3.479,5.711-7.826-.112-10.278-1.082-10.382-6.065-.185-8.93-.053-17.866-.056-26.8,0-4.8.159-9.6-.065-14.39-.135-2.893.9-3.783,3.691-3.577,3.887.289,8.339-1.054,10.092,4.732" fill="#393637"/><path d="M230.4,13.631q-15.9,0-31.7,0c-5.7-.005-6.1-.626-3.616-5.78C197.746,2.321,202.347,0,208.344.007Q228.784.023,249.227,0c2.386,0,4.877-.065,5.948,2.548.967,2.361-.065,4.364-1.623,6.322Q234.709,32.552,216,56.338c-.6.753-1.139,1.545-2.357,3.206,8.506,0,16.194-.081,23.88.025,6.284.087,11.069,3.492,13.059,8.909,1.118,3.04,1.2,4.858-3.128,4.811-17.116-.188-34.235-.085-51.352-.07-2.574,0-5.135-.105-6.389-2.813-1.172-2.529.446-4.406,1.892-6.238q18.438-23.355,36.873-46.713c.772-.98,1.981-1.75,1.917-3.824" fill="#393637"/><path d="M560.175,27.685c-1.425-5.959,1.845-5.171,4.614-5.173,8.9-.006,8.9-.02,8.9,8.757,0,11.906.081,23.814-.092,35.718-.029,2.03,1.623,5.433-1.456,5.954-3.551.6-7.969,1.677-10.729-1.813-1.777-2.247-2.523-1.963-4.575-.452-11.738,8.644-29.189,2.3-34.823-12.5-4.8-12.608.084-27.906,10.963-33.994a22.828,22.828,0,0,1,27.194,3.507m.056,19.969c-.058-8.2-5.394-13.756-13.055-13.582-7.363.167-12.7,5.851-12.765,13.6-.068,7.823,5.651,13.916,13.05,13.9,7.563-.015,12.828-5.754,12.77-13.921" fill="#393637"/><path d="M310.539,48.045c-.048,15.468-11.681,26.441-27.948,26.36-15.5-.077-27.3-11.764-27.151-26.885.149-15.074,12.051-26.45,27.648-26.426,16.01.025,27.5,11.306,27.451,26.951m-14.175-.357c-.058-7.961-5.565-13.614-13.284-13.634-7.861-.021-13.486,5.955-13.278,14.109.2,7.915,5.846,13.508,13.521,13.394,7.606-.112,13.1-5.953,13.041-13.869" fill="#393637"/><path d="M343.315,74.406c-15.737-.008-27.353-11.244-27.421-26.525-.069-15.408,11.818-26.91,27.684-26.788,15.736.122,27.36,11.379,27.431,26.566.071,15.4-11.683,26.752-27.694,26.747M330.077,47.855c.018,7.862,5.675,13.7,13.286,13.708,7.533.011,13.339-5.868,13.44-13.606.1-8.009-5.823-14.074-13.6-13.916-7.677.156-13.142,5.909-13.124,13.814" fill="#393637"/><path d="M67.384,94.557C55.343,106.635,44.235,118.2,32.628,129.251c-6.442,6.131-16.133,6.32-23.526,1.555C2.121,126.305-1.392,117.9.514,110.247c2.289-9.193,9.176-15.383,18.747-15.6,15.73-.349,31.474-.1,48.123-.1" fill="#168338"/><path d="M469.9,45.859c.129-9.388,4.707-17.883,15.157-22.249,10.356-4.328,20.358-3.534,29.351,3.874,2.549,2.1,3.383,3.908-.049,5.892a11.335,11.335,0,0,0-2.7,2.185c-2.523,2.792-4.589,3.464-8.054.622-4.5-3.687-12.056-2.489-15.881,1.544-4.7,4.961-5.081,13.857-.809,19.181,3.938,4.91,10.553,6.653,16,2.735,4.52-3.25,6.835-1.832,10.082,1.28,4.939,4.734,5.222,4.765-.513,8.69-9.162,6.271-19.016,6.528-28.778,1.776-9.787-4.765-13.862-13.213-13.809-25.53" fill="#393637"/><path d="M91.83,1.208c-3.962,3.978-7.438,7.5-10.957,10.987-2.528,2.5-5.719,3.161-9.152,3.159C49.11,15.342,26.5,15.307,3.888,15.4c-3.276.013-4.353-.616-2.457-3.785C5.017,5.617,9.828.932,17.063.852,41.334.587,65.609.759,89.882.779a12.25,12.25,0,0,1,1.948.429" fill="#5aac34"/><path d="M65.8,26.769c-4.328,4.4-8.168,8.4-12.121,12.28-1.9,1.869-4.478,2.08-6.986,2.089-10.8.041-21.609-.059-32.411.07-3.122.038-3.913-.692-2.283-3.544,3.306-5.786,8.086-10.362,14.675-10.7,12.844-.661,25.747-.194,39.126-.194" fill="#5aac34"/><path d="M218.638,122.313c1.855-7.277,3.353-13.128,4.835-18.983.693-2.735,4.555-4.454,6.89-3.105,1.381.8.368,1.712.171,2.508q-3.573,14.382-7.239,28.742c-.379,1.495-.888,2.806-2.925,2.654-1.789-.133-3.392.2-4.326-2.178-2.282-5.816-4.985-11.468-7.462-17.209a10.161,10.161,0,0,0-2.9-4.31c-1.71,6.332-3.85,12.393-4.881,18.635-.889,5.387-3.565,5.9-8.1,4.485q3.867-15.006,7.748-30.04c.4-1.538.391-3.43,2.778-3.4,2.121.024,4.028-.253,5.445,2.259,3.407,6.039,6.377,12.276,9.965,19.946" fill="#3c393b"/><path d="M365.773,99.244a15.7,15.7,0,0,1,6.363.9c1.416.446,3.841.222,2.919,2.709-.652,1.76-1.254,4.34-4.534,2.684a10.756,10.756,0,0,0-8.728-.438c-1.86.682-3.215,1.856-3.434,3.842-.207,1.877,1.1,3.067,2.565,3.927,1.708,1,3.526,1.812,5.274,2.745,3.466,1.849,5.833,4.576,5.609,8.64a9.628,9.628,0,0,1-6.211,8.832,23.75,23.75,0,0,1-17.94.128c-1.283-.472-3.256-.924-1.608-3.019.97-1.234,1.018-3.834,3.849-2.434a15.292,15.292,0,0,0,9.717,1.27c2.169-.4,4.2-1.168,4.691-3.744s-.974-4.021-3.01-5.106c-1.462-.779-2.97-1.47-4.431-2.25-3.832-2.046-6.24-5.007-5.577-9.573.638-4.4,3.493-6.907,7.626-8.195a17.911,17.911,0,0,1,6.86-.922" fill="#3c393b"/><path d="M244.518,134.8c-10.011.04-14.454-5.621-12.247-14.287,2.09-8.209,9.476-13.808,17.1-12.923,3.743.435,6.9,1.863,7.537,5.973.6,3.865-1.3,6.588-4.689,8.491-3.331,1.869-7.006,1.843-10.607,2.355-1.141.162-3.008-.473-3.1,1.553-.082,1.753,1.375,2.543,2.79,3.059,2.444.892,4.944.429,7.384-.076,1.471-.305,2.806-1.082,3.225,1.34.331,1.92.225,3.3-2.006,3.674-2.125.353-4.258.666-5.38.841m-5.586-14.484c3.837-.718,6.989-.581,9.788-2.161a3.054,3.054,0,0,0,1.74-3.67c-.47-1.673-1.949-1.5-3.24-1.515-4.5-.052-6.726,2.608-8.288,7.346" fill="#3c393b"/><path d="M397.712,123.982c.35-9.617,7.564-16.9,16.322-16.474,6.56.318,10.031,4.285,9.77,11.164-.351,9.244-7.412,16.306-16.124,16.127-6.7-.137-10.217-3.959-9.968-10.817m19.407-5.584c0-4.072-1.162-5.411-4.639-5.359-4.482.068-8.234,5.217-8.228,11.138,0,3.069,1.071,5.189,4.445,5.287,4.369.126,8.426-5.279,8.422-11.066" fill="#3c393b"/><path d="M299.5,134.794c-9.72.068-13.761-4.68-12.341-13.254,1.327-8.015,7.027-13.439,15.048-13.913,4.148-.246,8.208.515,9.4,5.372,1.128,4.583-1.315,7.444-5.268,9.454-3.08,1.564-6.42,1.418-9.674,1.92-1.14.176-2.981-.489-3.166,1.459-.165,1.734,1.193,2.614,2.649,3.156,2.615.972,5.294.519,7.836-.153,1.657-.437,2.411-.357,2.745,1.437.292,1.567.578,3.1-1.417,3.562-2.249.518-4.563.761-5.815.96m-5.71-14.92a20.825,20.825,0,0,0,9.593-1.564,3.062,3.062,0,0,0,2-3.544c-.376-2.031-2.056-1.793-3.495-1.795-4.284-.007-6.292,2.761-8.1,6.9" fill="#3c393b"/><path d="M579.959,116.911c-.342,5.312-2.377,10.254-3.527,15.392-.683,3.051-3.585,1.823-5.472,1.66-2.718-.234-.972-2.4-.779-3.44.723-3.883,1.928-7.674,2.726-11.546.494-2.4,1.105-5.216-2.518-5.856-3.184-.563-5.682-.252-6.3,3.989-.691,4.7-2.4,9.24-3.318,13.916-.772,3.907-3.633,3.511-6.04,2.915-2.985-.739-.721-3.02-.421-4.352,1.266-5.622,2.883-11.166,4.381-16.735a9.767,9.767,0,0,1,.885-2.809c1.344-2.06,11.946-3.11,15.789-1.584s4.865,4.659,4.6,8.45" fill="#3c393b"/><path d="M484.778,100.041c-2.217,8.638-4.191,16.763-6.428,24.815-.824,2.967-.057,3.9,2.942,3.731s5.989-.108,8.979,0c1.122.042,3.079-.67,2.879,1.516-.15,1.644.065,3.957-2.683,3.971-6.487.031-12.975.006-19.462.017-1.569,0-1.9-.575-1.493-2.132,2.607-9.893,4.967-19.852,7.711-29.706,1.157-4.152,4.683-1.359,7.555-2.216" fill="#3c393b"/><path d="M523.065,126.167a39.183,39.183,0,0,0,8.28-13.173c1.6-4.3,3.934-5.663,8.524-4.374-.976,4.851-3.721,8.911-6.363,12.928-2.538,3.856-5.542,7.408-8.317,11.112-1.617,2.16-3.925,1.518-5.974,1.31-1.928-.2-1.75-2.229-2.018-3.527a136.248,136.248,0,0,1-2.678-19.1c-.123-1.967-.025-3.375,2.422-3.064,1.715.218,4.072-1.084,4.418,2.3.517,5.035-.159,10.224,1.706,15.593" fill="#3c393b"/><path d="M269.792,126.217a57.109,57.109,0,0,0,8.832-14.523c.5-1.146.613-2.933,2.06-3.192,1.75-.313,3.988-.647,5.319.161,1.5.913-.23,2.664-.784,3.868-3.332,7.248-8,13.642-12.987,19.845-1.684,2.094-3.757,1.706-5.859,1.7-2.544-.011-2.158-2.249-2.431-3.642-1.235-6.306-2.68-12.579-2.695-19.083-.005-2.362.542-3.264,3-3.14,2.115.107,3.946-.06,3.977,2.934.05,4.868-.233,9.8,1.572,15.075" fill="#3c393b"/><path d="M388.4,129.281c1.844-.191,3.744-1.428,4.117,1.757.322,2.745-1.26,2.873-3.147,3.266-10.419,2.167-14.693-2.186-12.028-12.3,1.468-5.57,3.034-11.119,4.3-16.733.632-2.8,1.854-4.029,4.865-4.458,3.094-.441,3.329.881,2.434,2.828-2.039,4.434.138,4.9,3.809,4.694,1.28-.073,3.531-1.154,3.458,1.929-.068,2.867-1.738,2.88-3.928,3.073-2.075.184-5.184-1.54-6.087,1.316-1.317,4.166-3.53,8.367-2.7,12.852.443,2.408,3.167,1.775,4.909,1.779" fill="#3c393b"/><path d="M329.587,113.093c-3.382-.886-4.751.972-5.407,4.216-.878,4.345-2.29,8.588-3.084,12.944-.67,3.679-2.868,4.181-5.985,3.879-1.662-.161-1.833-.8-1.445-2.222,1.905-6.978,3.826-13.955,5.537-20.981.428-1.759,1.637-1.966,2.846-2.208,3.243-.65,6.533-1.394,9.841-.786,1.292.237,3.865-.755,3.4,2.165-.332,2.106-1.292,3.777-3.993,3.011a7.311,7.311,0,0,0-1.715-.018" fill="#3c393b"/><path d="M497.294,133.672c1.956-7.645,3.982-15.209,5.8-22.823.81-3.4,3.363-2.836,5.478-2.486,3.171.525,1.181,2.766.843,4.167-1.313,5.437-3.343,10.756-4.11,16.256-.729,5.23-3.2,6.159-8.008,4.886" fill="#3c393b"/><path d="M538.839,133.518q3.047-11.681,6.1-23.389c.861-3.305,3.555-1.773,5.37-1.74,2.737.05,1.239,2.151.959,3.31-1.392,5.774-3.18,11.464-4.342,17.28-.967,4.841-3.331,6.345-8.085,4.539" fill="#3c393b"/><path d="M549.747,104.445c-1.854.165-3.205-.836-3.2-3.066.005-2.82,1.757-4.113,4.443-4.162,2.089-.038,3.734,1,3.685,3.129-.06,2.676-1.772,4.115-4.926,4.1" fill="#3c393b"/><path d="M509.281,97.119c2.145.309,3.766.845,3.707,3.283-.072,2.966-1.834,3.984-4.5,4.018-2.112.027-3.591-.766-3.551-3.1.051-2.917,2.04-3.847,4.347-4.2" fill="#393637"/></g></svg>